<svg xmlns="http://www.w3.org/2000/svg" width="170" height="140" viewBox="0 0 170 140"><defs><filter id="bl1" x="-50%" y="-50%" width="200%" height="200%"><feGaussianBlur stdDeviation="5"/></filter></defs><ellipse cx="85" cy="120" rx="56" ry="14" fill="#000000" opacity="0.3" filter="url(#bl1)"/><path d="M77.1 116 Q75.1 76.1 70.4 46.8" fill="none" stroke="#2b1a10" stroke-width="6" stroke-linecap="round"/><path d="M77.1 116 Q75.1 76.1 70.4 46.8" fill="none" stroke="#7a9a3c" stroke-width="3" stroke-linecap="round"/><ellipse cx="71" cy="52.8" rx="4.5" ry="11" fill="#7a4a2a" stroke="#2b1a10" stroke-width="2" /><path d="M69.5 116 Q68.5 65.9 66.3 29.9" fill="none" stroke="#2b1a10" stroke-width="6" stroke-linecap="round"/><path d="M69.5 116 Q68.5 65.9 66.3 29.9" fill="none" stroke="#7a9a3c" stroke-width="3" stroke-linecap="round"/><path d="M60.2 116 Q58 86.3 52.8 63.8" fill="none" stroke="#2b1a10" stroke-width="6" stroke-linecap="round"/><path d="M60.2 116 Q58 86.3 52.8 63.8" fill="none" stroke="#7a9a3c" stroke-width="3" stroke-linecap="round"/><path d="M122.9 116 Q121.1 85.7 116.9 62.8" fill="none" stroke="#2b1a10" stroke-width="6" stroke-linecap="round"/><path d="M122.9 116 Q121.1 85.7 116.9 62.8" fill="none" stroke="#7a9a3c" stroke-width="3" stroke-linecap="round"/><ellipse cx="117.5" cy="68.8" rx="4.5" ry="11" fill="#7a4a2a" stroke="#2b1a10" stroke-width="2" /><path d="M46.3 116 Q46 70.2 45.2 37.1" fill="none" stroke="#2b1a10" stroke-width="6" stroke-linecap="round"/><path d="M46.3 116 Q46 70.2 45.2 37.1" fill="none" stroke="#7a9a3c" stroke-width="3" stroke-linecap="round"/><path d="M97.9 116 Q99.4 75.6 102.9 46" fill="none" stroke="#2b1a10" stroke-width="6" stroke-linecap="round"/><path d="M97.9 116 Q99.4 75.6 102.9 46" fill="none" stroke="#7a9a3c" stroke-width="3" stroke-linecap="round"/><path d="M98.4 116 Q100.3 75.6 104.6 46" fill="none" stroke="#2b1a10" stroke-width="6" stroke-linecap="round"/><path d="M98.4 116 Q100.3 75.6 104.6 46" fill="none" stroke="#7a9a3c" stroke-width="3" stroke-linecap="round"/><ellipse cx="104" cy="52" rx="4.5" ry="11" fill="#7a4a2a" stroke="#2b1a10" stroke-width="2" /><path d="M47.5 116 Q48.1 78.7 49.5 51.1" fill="none" stroke="#2b1a10" stroke-width="6" stroke-linecap="round"/><path d="M47.5 116 Q48.1 78.7 49.5 51.1" fill="none" stroke="#7a9a3c" stroke-width="3" stroke-linecap="round"/><path d="M122.4 116 Q120.7 64.2 116.8 27" fill="none" stroke="#2b1a10" stroke-width="6" stroke-linecap="round"/><path d="M122.4 116 Q120.7 64.2 116.8 27" fill="none" stroke="#7a9a3c" stroke-width="3" stroke-linecap="round"/><path d="M87.7 116 Q90.4 63.9 96.6 26.5" fill="none" stroke="#2b1a10" stroke-width="6" stroke-linecap="round"/><path d="M87.7 116 Q90.4 63.9 96.6 26.5" fill="none" stroke="#7a9a3c" stroke-width="3" stroke-linecap="round"/><ellipse cx="95.7" cy="32.5" rx="4.5" ry="11" fill="#7a4a2a" stroke="#2b1a10" stroke-width="2" /><path d="M95.6 116 Q94.6 78.3 92.4 50.5" fill="none" stroke="#2b1a10" stroke-width="6" stroke-linecap="round"/><path d="M95.6 116 Q94.6 78.3 92.4 50.5" fill="none" stroke="#7a9a3c" stroke-width="3" stroke-linecap="round"/></svg>