<svg xmlns="http://www.w3.org/2000/svg" width="440" height="560" viewBox="0 0 440 560"><defs><filter id="bl1" x="-50%" y="-50%" width="200%" height="200%"><feGaussianBlur stdDeviation="5"/></filter><linearGradient id="lg2" x1="0" y1="0" x2="1" y2="0"><stop offset="0" stop-color="#f9f4ec"/><stop offset="1" stop-color="#eadbbd"/></linearGradient><linearGradient id="lg3" x1="0" y1="0" x2="1" y2="0"><stop offset="0" stop-color="#e3cfa6"/><stop offset="1" stop-color="#d9be87"/></linearGradient><linearGradient id="lg4" x1="0" y1="0" x2="1" y2="0"><stop offset="0" stop-color="#9a6236"/><stop offset="1" stop-color="#6a4224"/></linearGradient><linearGradient id="lg5" x1="0" y1="0" x2="0" y2="1"><stop offset="0" stop-color="#fff0b8"/><stop offset="1" stop-color="#f2b64a"/></linearGradient><linearGradient id="lg6" x1="0" y1="0" x2="0" y2="1"><stop offset="0" stop-color="#fff0b8"/><stop offset="1" stop-color="#f2b64a"/></linearGradient><linearGradient id="lg7" x1="0" y1="0" x2="0" y2="1"><stop offset="0" stop-color="#fff0b8"/><stop offset="1" stop-color="#f2b64a"/></linearGradient><linearGradient id="lg8" x1="0" y1="0" x2="0" y2="1"><stop offset="0" stop-color="#e5d3ad"/><stop offset="1" stop-color="#d7b97f"/></linearGradient><linearGradient id="lg9" x1="0" y1="0" x2="0" y2="1"><stop offset="0" stop-color="#fff0b8"/><stop offset="1" stop-color="#f2b64a"/></linearGradient><linearGradient id="lg10" x1="0" y1="0" x2="0.3" y2="1"><stop offset="0" stop-color="#509c6c"/><stop offset="1" stop-color="#315f42"/></linearGradient><linearGradient id="lg11" x1="0" y1="0" x2="1" y2="0"><stop offset="0" stop-color="#b0664a"/><stop offset="1" stop-color="#563224"/></linearGradient></defs><ellipse cx="220" cy="435" rx="200" ry="64" fill="#000000" opacity="0.25" filter="url(#bl1)"/><path d="M76 430 L220 502 L220 352 L76 280 Z" fill="url(#lg2)" stroke="#2b1a10" stroke-width="3" stroke-linejoin="round" stroke-linecap="round" /><path d="M220 502 L364 430 L364 280 L220 352 Z" fill="url(#lg3)" stroke="#2b1a10" stroke-width="3" stroke-linejoin="round" stroke-linecap="round" /><path d="M76 430 L220 502 L220 478 L76 406 Z" fill="#a39a8a" stroke="#2b1a10" stroke-width="2.5" stroke-linejoin="round" stroke-linecap="round" /><path d="M220 502 L364 430 L364 406 L220 478 Z" fill="#8a8274" stroke="#2b1a10" stroke-width="2.5" stroke-linejoin="round" stroke-linecap="round" /><path d="M76 406 L76 280" fill="none" stroke="#2b1a10" stroke-width="9" stroke-linecap="round" stroke-linejoin="round"/><path d="M76 406 L76 280" fill="none" stroke="#6b4226" stroke-width="6" stroke-linecap="round" stroke-linejoin="round"/><path d="M143 439.5 L143 313.5" fill="none" stroke="#2b1a10" stroke-width="9" stroke-linecap="round" stroke-linejoin="round"/><path d="M143 439.5 L143 313.5" fill="none" stroke="#6b4226" stroke-width="6" stroke-linecap="round" stroke-linejoin="round"/><path d="M188 462 L188 336" fill="none" stroke="#2b1a10" stroke-width="9" stroke-linecap="round" stroke-linejoin="round"/><path d="M188 462 L188 336" fill="none" stroke="#6b4226" stroke-width="6" stroke-linecap="round" stroke-linejoin="round"/><path d="M220 478 L220 352" fill="none" stroke="#2b1a10" stroke-width="9" stroke-linecap="round" stroke-linejoin="round"/><path d="M220 478 L220 352" fill="none" stroke="#6b4226" stroke-width="6" stroke-linecap="round" stroke-linejoin="round"/><path d="M364 406 L364 280" fill="none" stroke="#2b1a10" stroke-width="9" stroke-linecap="round" stroke-linejoin="round"/><path d="M364 406 L364 280" fill="none" stroke="#6b4226" stroke-width="6" stroke-linecap="round" stroke-linejoin="round"/><path d="M292 442 L292 316" fill="none" stroke="#2b1a10" stroke-width="9" stroke-linecap="round" stroke-linejoin="round"/><path d="M292 442 L292 316" fill="none" stroke="#6b4226" stroke-width="6" stroke-linecap="round" stroke-linejoin="round"/><path d="M220 478 L220 352" fill="none" stroke="#2b1a10" stroke-width="9" stroke-linecap="round" stroke-linejoin="round"/><path d="M220 478 L220 352" fill="none" stroke="#6b4226" stroke-width="6" stroke-linecap="round" stroke-linejoin="round"/><path d="M76 337 L220 409" fill="none" stroke="#2b1a10" stroke-width="8" stroke-linecap="round" stroke-linejoin="round"/><path d="M76 337 L220 409" fill="none" stroke="#6b4226" stroke-width="5" stroke-linecap="round" stroke-linejoin="round"/><path d="M76 370 L143 370.5" fill="none" stroke="#2b1a10" stroke-width="6.4" stroke-linecap="round" stroke-linejoin="round"/><path d="M76 370 L143 370.5" fill="none" stroke="#6b4226" stroke-width="4" stroke-linecap="round" stroke-linejoin="round"/><path d="M144 442 L184 462 L184 382 L144 362 Z" fill="#5e3a20" stroke="#2b1a10" stroke-width="2.5" stroke-linejoin="round" stroke-linecap="round" /><path d="M148 444 L180 460 L180 386 L148 370 Z" fill="url(#lg4)" stroke="#2b1a10" stroke-width="2.5" stroke-linejoin="round" stroke-linecap="round" /><path d="M158.6 447.3 L158.6 377.3" fill="none" stroke="#4a2e1a" stroke-width="1.6" stroke-linejoin="round" stroke-linecap="round" /><path d="M169.1 452.6 L169.1 382.6" fill="none" stroke="#4a2e1a" stroke-width="1.6" stroke-linejoin="round" stroke-linecap="round" /><ellipse cx="174" cy="421" rx="3" ry="3" fill="#e8c14a" stroke="#2b1a10" stroke-width="1.2" /><path d="M140 464 L184 486 L172 492 L128 470 Z" fill="#b8b0a0" stroke="#2b1a10" stroke-width="2" stroke-linejoin="round" stroke-linecap="round" /><path d="M96 387 L128 403 L128 351 L96 335 Z" fill="#6b4226" stroke="#2b1a10" stroke-width="2" stroke-linejoin="round" stroke-linecap="round" /><path d="M96 382 L128 398 L128 356 L96 340 Z" fill="url(#lg5)" stroke="#2b1a10" stroke-width="2.2" stroke-linejoin="round" stroke-linecap="round" /><path d="M96 361 L128 377" fill="none" stroke="#6b4226" stroke-width="2.5" stroke-linejoin="round" stroke-linecap="round" /><path d="M112 390 L112 348" fill="none" stroke="#6b4226" stroke-width="2" stroke-linejoin="round" stroke-linecap="round" /><path d="M96 388 L128 404 L128 418 L96 402 Z" fill="#8a5a32" stroke="#2b1a10" stroke-width="2" stroke-linejoin="round" stroke-linecap="round" /><path d="M101.1 389 A3.9 3.9 0 0 1 94.9 386.2 A3.4 3.4 0 0 1 97.2 380.9 A4.1 4.1 0 0 1 104.2 380.2 A3.4 3.4 0 0 1 106.5 385.6 A3.7 3.7 0 0 1 101.1 389 Z" fill="#5e8f30" stroke="#2b1a10" stroke-width="1.4" stroke-linejoin="round" stroke-linecap="round" /><ellipse cx="99.3" cy="382.4" rx="2.4" ry="2.4" fill="#ffe07a" /><path d="M109.5 393.5 A3.8 3.8 0 0 1 103.9 390.2 A3 3 0 0 1 105 385 A3.9 3.9 0 0 1 111.7 384.4 A3.6 3.6 0 0 1 115.1 389.4 A4 4 0 0 1 109.5 393.5 Z" fill="#5e8f30" stroke="#2b1a10" stroke-width="1.4" stroke-linejoin="round" stroke-linecap="round" /><ellipse cx="107.5" cy="386.4" rx="2.4" ry="2.4" fill="#e8453c" /><path d="M119.5 388.7 A3.1 3.1 0 0 1 121.1 393.8 A3.9 3.9 0 0 1 115.2 396.9 A3.7 3.7 0 0 1 110.2 392.9 A3.4 3.4 0 0 1 112.8 387.7 A3.9 3.9 0 0 1 119.5 388.7 Z" fill="#5e8f30" stroke="#2b1a10" stroke-width="1.4" stroke-linejoin="round" stroke-linecap="round" /><ellipse cx="117" cy="389.9" rx="2.4" ry="2.4" fill="#e8453c" /><path d="M128.9 396.4 A3.5 3.5 0 0 1 124 399.8 A3.6 3.6 0 0 1 118.2 397.6 A3 3 0 0 1 119.5 392.6 A3.8 3.8 0 0 1 125.9 391.5 A3.3 3.3 0 0 1 128.9 396.4 Z" fill="#5e8f30" stroke="#2b1a10" stroke-width="1.4" stroke-linejoin="round" stroke-linecap="round" /><ellipse cx="121.3" cy="393.6" rx="2.4" ry="2.4" fill="#f5a3b8" /><path d="M342 388 L306 406 L306 354 L342 336 Z" fill="#6b4226" stroke="#2b1a10" stroke-width="2" stroke-linejoin="round" stroke-linecap="round" /><path d="M342 383 L306 401 L306 359 L342 341 Z" fill="url(#lg6)" stroke="#2b1a10" stroke-width="2.2" stroke-linejoin="round" stroke-linecap="round" /><path d="M342 362 L306 380" fill="none" stroke="#6b4226" stroke-width="2.5" stroke-linejoin="round" stroke-linecap="round" /><path d="M324 392 L324 350" fill="none" stroke="#6b4226" stroke-width="2" stroke-linejoin="round" stroke-linecap="round" /><path d="M342 389 L306 407 L306 421 L342 403 Z" fill="#8a5a32" stroke="#2b1a10" stroke-width="2" stroke-linejoin="round" stroke-linecap="round" /><path d="M331.6 384 A3.5 3.5 0 0 1 337.1 381.3 A3.4 3.4 0 0 1 341.8 384.8 A3.2 3.2 0 0 1 339.8 389.9 A4 4 0 0 1 333 389 A3 3 0 0 1 331.6 384 Z" fill="#5e8f30" stroke="#2b1a10" stroke-width="1.4" stroke-linejoin="round" stroke-linecap="round" /><ellipse cx="334.8" cy="383.7" rx="2.4" ry="2.4" fill="#e8453c" /><path d="M333.8 388.2 A3.6 3.6 0 0 1 331.4 393.9 A3.9 3.9 0 0 1 324.8 393.8 A3.3 3.3 0 0 1 321.6 389 A3.9 3.9 0 0 1 327.2 385.2 A4.2 4.2 0 0 1 333.8 388.2 Z" fill="#5e8f30" stroke="#2b1a10" stroke-width="1.4" stroke-linejoin="round" stroke-linecap="round" /><ellipse cx="329.1" cy="388.2" rx="2.4" ry="2.4" fill="#ffe07a" /><path d="M313.9 394.6 A3.3 3.3 0 0 1 317.6 390.2 A3.7 3.7 0 0 1 323.9 391.2 A3.1 3.1 0 0 1 324.6 396.5 A3.9 3.9 0 0 1 318.3 398.9 A3.6 3.6 0 0 1 313.9 394.6 Z" fill="#5e8f30" stroke="#2b1a10" stroke-width="1.4" stroke-linejoin="round" stroke-linecap="round" /><ellipse cx="318.9" cy="392.2" rx="2.4" ry="2.4" fill="#f5a3b8" /><path d="M316.3 400.5 A3.9 3.9 0 0 1 310.2 403.2 A3.8 3.8 0 0 1 305.3 398.9 A3.5 3.5 0 0 1 308.9 394 A3.8 3.8 0 0 1 315.4 395.3 A3 3 0 0 1 316.3 400.5 Z" fill="#5e8f30" stroke="#2b1a10" stroke-width="1.4" stroke-linejoin="round" stroke-linecap="round" /><ellipse cx="311.3" cy="396.3" rx="2.4" ry="2.4" fill="#f5a3b8" /><path d="M278 420 L244 437 L244 385 L278 368 Z" fill="#6b4226" stroke="#2b1a10" stroke-width="2" stroke-linejoin="round" stroke-linecap="round" /><path d="M278 415 L244 432 L244 390 L278 373 Z" fill="url(#lg7)" stroke="#2b1a10" stroke-width="2.2" stroke-linejoin="round" stroke-linecap="round" /><path d="M278 394 L244 411" fill="none" stroke="#6b4226" stroke-width="2.5" stroke-linejoin="round" stroke-linecap="round" /><path d="M261 423.5 L261 381.5" fill="none" stroke="#6b4226" stroke-width="2" stroke-linejoin="round" stroke-linecap="round" /><path d="M278 421 L244 438 L244 452 L278 435 Z" fill="#8a5a32" stroke="#2b1a10" stroke-width="2" stroke-linejoin="round" stroke-linecap="round" /><path d="M278.6 415.7 A3.5 3.5 0 0 1 277.2 421.6 A4.4 4.4 0 0 1 269.7 421.8 A3.5 3.5 0 0 1 267 416.4 A3.8 3.8 0 0 1 272.4 412.7 A4 4 0 0 1 278.6 415.7 Z" fill="#5e8f30" stroke="#2b1a10" stroke-width="1.4" stroke-linejoin="round" stroke-linecap="round" /><ellipse cx="272.5" cy="415.6" rx="2.4" ry="2.4" fill="#f5a3b8" /><path d="M258 421.9 A3.8 3.8 0 0 1 262.3 416.8 A4.3 4.3 0 0 1 269.5 418.7 A3.2 3.2 0 0 1 268.8 424.3 A3.6 3.6 0 0 1 262.8 426 A3.6 3.6 0 0 1 258 421.9 Z" fill="#5e8f30" stroke="#2b1a10" stroke-width="1.4" stroke-linejoin="round" stroke-linecap="round" /><ellipse cx="264.9" cy="419.8" rx="2.4" ry="2.4" fill="#ffffff" /><path d="M251.6 428.6 A3.6 3.6 0 0 1 251.5 422.4 A4.3 4.3 0 0 1 258.8 420.9 A3.6 3.6 0 0 1 262.8 425.5 A3.6 3.6 0 0 1 258.9 430.4 A4.4 4.4 0 0 1 251.6 428.6 Z" fill="#5e8f30" stroke="#2b1a10" stroke-width="1.4" stroke-linejoin="round" stroke-linecap="round" /><ellipse cx="255.8" cy="423.5" rx="2.4" ry="2.4" fill="#ffe07a" /><path d="M255 427.5 A3.6 3.6 0 0 1 253.4 433.5 A4.4 4.4 0 0 1 245.7 433.8 A3.3 3.3 0 0 1 243.9 428.4 A3.5 3.5 0 0 1 248.7 424.8 A4 4 0 0 1 255 427.5 Z" fill="#5e8f30" stroke="#2b1a10" stroke-width="1.4" stroke-linejoin="round" stroke-linecap="round" /><ellipse cx="248.8" cy="427.4" rx="2.4" ry="2.4" fill="#e8453c" /><ellipse cx="192" cy="380" rx="14" ry="14" fill="#ffd66b" opacity="0.3"/><path d="M186 370 L198 370 L197 388 L187 388 Z" fill="#ffcf5a" stroke="#2b1a10" stroke-width="1.8" stroke-linejoin="round" stroke-linecap="round" /><path d="M112 302 L88 302" fill="none" stroke="#2b1a10" stroke-width="4.5" stroke-linecap="round" stroke-linejoin="round"/><path d="M112 302 L88 302" fill="none" stroke="#3d3f48" stroke-width="2.5" stroke-linecap="round" stroke-linejoin="round"/><path d="M72 306 L104 306 L104 332 L72 332 Z" fill="#c89a62" stroke="#2b1a10" stroke-width="2" stroke-linejoin="round" stroke-linecap="round" /><ellipse cx="88" cy="319" rx="6" ry="6" fill="#d9493c" stroke="#2b1a10" stroke-width="1.4" /><path d="M128 124 L312 216 L404 288 L220 196 Z" fill="#14261a" stroke="#2b1a10" stroke-width="3" stroke-linejoin="round" stroke-linecap="round" /><path d="M220 352 L364 280 L292 212 Z" fill="url(#lg8)" stroke="#2b1a10" stroke-width="3" stroke-linejoin="round" stroke-linecap="round" /><path d="M344 286 L292 220" fill="none" stroke="#2b1a10" stroke-width="6.4" stroke-linecap="round" stroke-linejoin="round"/><path d="M344 286 L292 220" fill="none" stroke="#6b4226" stroke-width="4" stroke-linecap="round" stroke-linejoin="round"/><path d="M240 338 L292 220" fill="none" stroke="#2b1a10" stroke-width="6.4" stroke-linecap="round" stroke-linejoin="round"/><path d="M240 338 L292 220" fill="none" stroke="#6b4226" stroke-width="4" stroke-linecap="round" stroke-linejoin="round"/><path d="M284 262 L300 254 L300 278 L284 286 Z" fill="url(#lg9)" stroke="#2b1a10" stroke-width="2" stroke-linejoin="round" stroke-linecap="round" /><path d="M128 124 L312 216 L220 380 L36 288 Z" fill="url(#lg10)" stroke="#2b1a10" stroke-width="3.2" stroke-linejoin="round" stroke-linecap="round" /><path d="M112.7 151.3 L296.7 243.3" fill="none" stroke="#0b150f" stroke-width="2" stroke-linejoin="round" stroke-linecap="round" /><path d="M140.3 165.1 L155.6 137.8" fill="none" stroke="#193021" stroke-width="1.4" stroke-linejoin="round" stroke-linecap="round" /><path d="M158.7 174.3 L174 147" fill="none" stroke="#193021" stroke-width="1.4" stroke-linejoin="round" stroke-linecap="round" /><path d="M177.1 183.5 L192.4 156.2" fill="none" stroke="#193021" stroke-width="1.4" stroke-linejoin="round" stroke-linecap="round" /><path d="M195.5 192.7 L210.8 165.4" fill="none" stroke="#193021" stroke-width="1.4" stroke-linejoin="round" stroke-linecap="round" /><path d="M213.9 201.9 L229.2 174.6" fill="none" stroke="#193021" stroke-width="1.4" stroke-linejoin="round" stroke-linecap="round" /><path d="M232.3 211.1 L247.6 183.8" fill="none" stroke="#193021" stroke-width="1.4" stroke-linejoin="round" stroke-linecap="round" /><path d="M250.7 220.3 L266 193" fill="none" stroke="#193021" stroke-width="1.4" stroke-linejoin="round" stroke-linecap="round" /><path d="M269.1 229.5 L284.4 202.2" fill="none" stroke="#193021" stroke-width="1.4" stroke-linejoin="round" stroke-linecap="round" /><path d="M287.5 238.7 L302.8 211.4" fill="none" stroke="#193021" stroke-width="1.4" stroke-linejoin="round" stroke-linecap="round" /><path d="M97.3 178.7 L281.3 270.7" fill="none" stroke="#0b150f" stroke-width="2" stroke-linejoin="round" stroke-linecap="round" /><path d="M115.7 187.9 L131.1 160.5" fill="none" stroke="#193021" stroke-width="1.4" stroke-linejoin="round" stroke-linecap="round" /><path d="M134.1 197.1 L149.5 169.7" fill="none" stroke="#193021" stroke-width="1.4" stroke-linejoin="round" stroke-linecap="round" /><path d="M152.5 206.3 L167.9 178.9" fill="none" stroke="#193021" stroke-width="1.4" stroke-linejoin="round" stroke-linecap="round" /><path d="M170.9 215.5 L186.3 188.1" fill="none" stroke="#193021" stroke-width="1.4" stroke-linejoin="round" stroke-linecap="round" /><path d="M189.3 224.7 L204.7 197.3" fill="none" stroke="#193021" stroke-width="1.4" stroke-linejoin="round" stroke-linecap="round" /><path d="M207.7 233.9 L223.1 206.5" fill="none" stroke="#193021" stroke-width="1.4" stroke-linejoin="round" stroke-linecap="round" /><path d="M226.1 243.1 L241.5 215.7" fill="none" stroke="#193021" stroke-width="1.4" stroke-linejoin="round" stroke-linecap="round" /><path d="M244.5 252.3 L259.9 224.9" fill="none" stroke="#193021" stroke-width="1.4" stroke-linejoin="round" stroke-linecap="round" /><path d="M262.9 261.5 L278.3 234.1" fill="none" stroke="#193021" stroke-width="1.4" stroke-linejoin="round" stroke-linecap="round" /><path d="M82 206 L266 298" fill="none" stroke="#0b150f" stroke-width="2" stroke-linejoin="round" stroke-linecap="round" /><path d="M109.6 219.8 L124.9 192.5" fill="none" stroke="#193021" stroke-width="1.4" stroke-linejoin="round" stroke-linecap="round" /><path d="M128 229 L143.3 201.7" fill="none" stroke="#193021" stroke-width="1.4" stroke-linejoin="round" stroke-linecap="round" /><path d="M146.4 238.2 L161.7 210.9" fill="none" stroke="#193021" stroke-width="1.4" stroke-linejoin="round" stroke-linecap="round" /><path d="M164.8 247.4 L180.1 220.1" fill="none" stroke="#193021" stroke-width="1.4" stroke-linejoin="round" stroke-linecap="round" /><path d="M183.2 256.6 L198.5 229.3" fill="none" stroke="#193021" stroke-width="1.4" stroke-linejoin="round" stroke-linecap="round" /><path d="M201.6 265.8 L216.9 238.5" fill="none" stroke="#193021" stroke-width="1.4" stroke-linejoin="round" stroke-linecap="round" /><path d="M220 275 L235.3 247.7" fill="none" stroke="#193021" stroke-width="1.4" stroke-linejoin="round" stroke-linecap="round" /><path d="M238.4 284.2 L253.7 256.9" fill="none" stroke="#193021" stroke-width="1.4" stroke-linejoin="round" stroke-linecap="round" /><path d="M256.8 293.4 L272.1 266.1" fill="none" stroke="#193021" stroke-width="1.4" stroke-linejoin="round" stroke-linecap="round" /><path d="M66.7 233.3 L250.7 325.3" fill="none" stroke="#0b150f" stroke-width="2" stroke-linejoin="round" stroke-linecap="round" /><path d="M85.1 242.5 L100.4 215.2" fill="none" stroke="#193021" stroke-width="1.4" stroke-linejoin="round" stroke-linecap="round" /><path d="M103.5 251.7 L118.8 224.4" fill="none" stroke="#193021" stroke-width="1.4" stroke-linejoin="round" stroke-linecap="round" /><path d="M121.9 260.9 L137.2 233.6" fill="none" stroke="#193021" stroke-width="1.4" stroke-linejoin="round" stroke-linecap="round" /><path d="M140.3 270.1 L155.6 242.8" fill="none" stroke="#193021" stroke-width="1.4" stroke-linejoin="round" stroke-linecap="round" /><path d="M158.7 279.3 L174 252" fill="none" stroke="#193021" stroke-width="1.4" stroke-linejoin="round" stroke-linecap="round" /><path d="M177.1 288.5 L192.4 261.2" fill="none" stroke="#193021" stroke-width="1.4" stroke-linejoin="round" stroke-linecap="round" /><path d="M195.5 297.7 L210.8 270.4" fill="none" stroke="#193021" stroke-width="1.4" stroke-linejoin="round" stroke-linecap="round" /><path d="M213.9 306.9 L229.2 279.6" fill="none" stroke="#193021" stroke-width="1.4" stroke-linejoin="round" stroke-linecap="round" /><path d="M232.3 316.1 L247.6 288.8" fill="none" stroke="#193021" stroke-width="1.4" stroke-linejoin="round" stroke-linecap="round" /><path d="M51.3 260.7 L235.3 352.7" fill="none" stroke="#0b150f" stroke-width="2" stroke-linejoin="round" stroke-linecap="round" /><path d="M78.9 274.5 L94.3 247.1" fill="none" stroke="#193021" stroke-width="1.4" stroke-linejoin="round" stroke-linecap="round" /><path d="M97.3 283.7 L112.7 256.3" fill="none" stroke="#193021" stroke-width="1.4" stroke-linejoin="round" stroke-linecap="round" /><path d="M115.7 292.9 L131.1 265.5" fill="none" stroke="#193021" stroke-width="1.4" stroke-linejoin="round" stroke-linecap="round" /><path d="M134.1 302.1 L149.5 274.7" fill="none" stroke="#193021" stroke-width="1.4" stroke-linejoin="round" stroke-linecap="round" /><path d="M152.5 311.3 L167.9 283.9" fill="none" stroke="#193021" stroke-width="1.4" stroke-linejoin="round" stroke-linecap="round" /><path d="M170.9 320.5 L186.3 293.1" fill="none" stroke="#193021" stroke-width="1.4" stroke-linejoin="round" stroke-linecap="round" /><path d="M189.3 329.7 L204.7 302.3" fill="none" stroke="#193021" stroke-width="1.4" stroke-linejoin="round" stroke-linecap="round" /><path d="M207.7 338.9 L223.1 311.5" fill="none" stroke="#193021" stroke-width="1.4" stroke-linejoin="round" stroke-linecap="round" /><path d="M226.1 348.1 L241.5 320.7" fill="none" stroke="#193021" stroke-width="1.4" stroke-linejoin="round" stroke-linecap="round" /><path d="M36 288 L220 380 L220 390 L36 298 Z" fill="#0b150f" stroke="#2b1a10" stroke-width="2.5" stroke-linejoin="round" stroke-linecap="round" /><path d="M134 115 L318 207 L306 221 L122 129 Z" fill="#203d2b" stroke="#2b1a10" stroke-width="2" stroke-linejoin="round" stroke-linecap="round" /><path d="M220 380 L312 216 L312 226 L220 390 Z" fill="#000000" stroke="#2b1a10" stroke-width="2.5" stroke-linejoin="round" stroke-linecap="round" /><path d="M212 156 L232 176 L232 98 L212 78 Z" fill="url(#lg11)" stroke="#2b1a10" stroke-width="2.5" stroke-linejoin="round" stroke-linecap="round" /><path d="M212 78 L232 98 L252 88 L232 68 Z" fill="#4a3226" stroke="#2b1a10" stroke-width="2" stroke-linejoin="round" stroke-linecap="round" /><ellipse cx="232" cy="60" rx="7" ry="7" fill="#e8eaf0" opacity="0.55"/><ellipse cx="241" cy="44" rx="9.5" ry="9.5" fill="#e8eaf0" opacity="0.4"/><ellipse cx="250" cy="28" rx="12" ry="12" fill="#e8eaf0" opacity="0.25000000000000006"/></svg>