<svg xmlns="http://www.w3.org/2000/svg" width="96" height="96" viewBox="0 0 96 96"><defs><linearGradient id="lg1" x1="0" y1="0" x2="0" y2="1"><stop offset="0" stop-color="#f2d27a"/><stop offset="1" stop-color="#a8762a"/></linearGradient><radialGradient id="rg2" cx="0.35" cy="0.3" r="0.9"><stop offset="0" stop-color="#90c0e9"/><stop offset="1" stop-color="#184d7c"/></radialGradient></defs><ellipse cx="48" cy="48" rx="44" ry="44" fill="url(#lg1)" stroke="#2b1a10" stroke-width="3" /><ellipse cx="48" cy="48" rx="37" ry="37" fill="url(#rg2)" stroke="#2b1a10" stroke-width="2.5" /><ellipse cx="38" cy="30" rx="20" ry="10" fill="#ffffff" opacity="0.22"/><path d="M32 52 A16 22 0 1 0 64 52 A16 22 0 1 0 32 52 Z" fill="#fff8e8" stroke="#2b1a10" stroke-width="3" stroke-linejoin="round" stroke-linecap="round" /><path d="M74 52 L82 52" fill="none" stroke="#fff8e8" stroke-width="4" stroke-linejoin="round" stroke-linecap="round" /><path d="M66.4 70.4 L72 76" fill="none" stroke="#fff8e8" stroke-width="4" stroke-linejoin="round" stroke-linecap="round" /><path d="M48 78 L48 86" fill="none" stroke="#fff8e8" stroke-width="4" stroke-linejoin="round" stroke-linecap="round" /><path d="M29.6 70.4 L24 76" fill="none" stroke="#fff8e8" stroke-width="4" stroke-linejoin="round" stroke-linecap="round" /><path d="M22 52 L14 52" fill="none" stroke="#fff8e8" stroke-width="4" stroke-linejoin="round" stroke-linecap="round" /><path d="M29.6 33.6 L24 28" fill="none" stroke="#fff8e8" stroke-width="4" stroke-linejoin="round" stroke-linecap="round" /><path d="M48 26 L48 18" fill="none" stroke="#fff8e8" stroke-width="4" stroke-linejoin="round" stroke-linecap="round" /><path d="M66.4 33.6 L72 28" fill="none" stroke="#fff8e8" stroke-width="4" stroke-linejoin="round" stroke-linecap="round" /></svg>