<svg xmlns="http://www.w3.org/2000/svg" width="440" height="240" viewBox="0 0 440 240"><defs><filter id="bl1" x="-50%" y="-50%" width="200%" height="200%"><feGaussianBlur stdDeviation="10"/></filter></defs><path d="M138.8 178.6 Q135.1 175.8 130.4 174" fill="none" stroke="#cfdcaa" stroke-width="1.8" stroke-linecap="round"/><path d="M140.3 178.6 Q139.8 175.9 137.7 174.1" fill="none" stroke="#cfdcaa" stroke-width="1.8" stroke-linecap="round"/><path d="M281.5 108.9 Q279.1 104.8 277 102.1" fill="none" stroke="#cfdcaa" stroke-width="1.8" stroke-linecap="round"/><path d="M282.8 108.9 Q282.1 105.7 279.5 103.5" fill="none" stroke="#cfdcaa" stroke-width="1.8" stroke-linecap="round"/><path d="M169.5 149.1 Q169.1 146.4 168.4 144.6" fill="none" stroke="#cfdcaa" stroke-width="1.8" stroke-linecap="round"/><path d="M170.7 149.1 Q171.7 145.8 170.2 143.7" fill="none" stroke="#cfdcaa" stroke-width="1.8" stroke-linecap="round"/><path d="M328.4 79.1 Q326.2 76.1 324 74" fill="none" stroke="#cfdcaa" stroke-width="1.8" stroke-linecap="round"/><path d="M329.6 79.1 Q330.6 75.5 331.7 73" fill="none" stroke="#cfdcaa" stroke-width="1.8" stroke-linecap="round"/><path d="M124.1 147.8 Q122.6 144.2 119.4 141.9" fill="none" stroke="#cfdcaa" stroke-width="1.8" stroke-linecap="round"/><path d="M125.2 147.8 Q127.8 143.5 130.8 140.7" fill="none" stroke="#cfdcaa" stroke-width="1.8" stroke-linecap="round"/><path d="M257 135.6 Q257.8 131.7 260.7 129.2" fill="none" stroke="#cfdcaa" stroke-width="1.8" stroke-linecap="round"/><path d="M257.7 135.6 Q259.8 131.4 263.2 128.6" fill="none" stroke="#cfdcaa" stroke-width="1.8" stroke-linecap="round"/><path d="M133 139.3 Q130.6 134.4 129.3 131.1" fill="none" stroke="#cfdcaa" stroke-width="1.8" stroke-linecap="round"/><path d="M134.5 139.3 Q135.8 134.8 137.9 131.9" fill="none" stroke="#cfdcaa" stroke-width="1.8" stroke-linecap="round"/><path d="M190.1 143 Q189.9 140.1 190.4 138.1" fill="none" stroke="#cfdcaa" stroke-width="1.8" stroke-linecap="round"/><path d="M191 143 Q192.9 139.9 195.4 137.9" fill="none" stroke="#cfdcaa" stroke-width="1.8" stroke-linecap="round"/><path d="M336.7 156.5 Q334.1 152.6 331.2 150" fill="none" stroke="#cfdcaa" stroke-width="1.8" stroke-linecap="round"/><path d="M338.2 156.5 Q339.3 153 340.1 150.8" fill="none" stroke="#cfdcaa" stroke-width="1.8" stroke-linecap="round"/><path d="M219.7 116 Q219.3 112.5 221.5 110.2" fill="none" stroke="#cfdcaa" stroke-width="1.8" stroke-linecap="round"/><path d="M221.5 116 Q223.8 112.1 225.8 109.5" fill="none" stroke="#cfdcaa" stroke-width="1.8" stroke-linecap="round"/><path d="M235.1 182.1 Q234.4 179 235.6 177" fill="none" stroke="#cfdcaa" stroke-width="1.8" stroke-linecap="round"/><path d="M237.1 182.1 Q238.6 179.1 238.4 177.1" fill="none" stroke="#cfdcaa" stroke-width="1.8" stroke-linecap="round"/><path d="M298.8 155.5 Q296.1 152.1 293.5 149.8" fill="none" stroke="#cfdcaa" stroke-width="1.8" stroke-linecap="round"/><path d="M300 155.5 Q301.1 150.9 303.1 147.8" fill="none" stroke="#cfdcaa" stroke-width="1.8" stroke-linecap="round"/><path d="M141.2 110.5 Q140.9 105.9 140.9 102.9" fill="none" stroke="#cfdcaa" stroke-width="1.8" stroke-linecap="round"/><path d="M141.8 110.5 Q143.9 107 147 104.7" fill="none" stroke="#cfdcaa" stroke-width="1.8" stroke-linecap="round"/><path d="M353.3 97.2 Q351.8 92.7 349.1 89.7" fill="none" stroke="#cfdcaa" stroke-width="1.8" stroke-linecap="round"/><path d="M354.2 97.2 Q354.7 92.2 353.6 88.8" fill="none" stroke="#cfdcaa" stroke-width="1.8" stroke-linecap="round"/><path d="M325.9 68.6 Q325.4 65.2 325 63" fill="none" stroke="#cfdcaa" stroke-width="1.8" stroke-linecap="round"/><path d="M326.3 68.6 Q326.1 65 324.7 62.6" fill="none" stroke="#cfdcaa" stroke-width="1.8" stroke-linecap="round"/><path d="M90.4 126.8 Q88.2 124 85.4 122.1" fill="none" stroke="#cfdcaa" stroke-width="1.8" stroke-linecap="round"/><path d="M91.5 126.8 Q93.4 123.2 96.6 120.7" fill="none" stroke="#cfdcaa" stroke-width="1.8" stroke-linecap="round"/><path d="M360.8 89.3 Q360.8 85.7 363.1 83.3" fill="none" stroke="#cfdcaa" stroke-width="1.8" stroke-linecap="round"/><path d="M361.9 89.3 Q363.6 86 366.3 83.8" fill="none" stroke="#cfdcaa" stroke-width="1.8" stroke-linecap="round"/><path d="M210.1 109.4 Q211.1 106.8 213.7 105" fill="none" stroke="#cfdcaa" stroke-width="1.8" stroke-linecap="round"/><path d="M210.8 109.4 Q212.8 107.2 215.4 105.7" fill="none" stroke="#cfdcaa" stroke-width="1.8" stroke-linecap="round"/><path d="M252.9 139.5 Q251.9 136.7 252.2 134.9" fill="none" stroke="#cfdcaa" stroke-width="1.8" stroke-linecap="round"/><path d="M254.2 139.5 Q254.9 136.3 254 134.2" fill="none" stroke="#cfdcaa" stroke-width="1.8" stroke-linecap="round"/><path d="M332.6 114.6 Q330 110.7 327.5 108.1" fill="none" stroke="#cfdcaa" stroke-width="1.8" stroke-linecap="round"/><path d="M334.3 114.6 Q334.5 110.1 332.7 107.1" fill="none" stroke="#cfdcaa" stroke-width="1.8" stroke-linecap="round"/><path d="M190.6 89.3 Q187.4 84.3 183.5 80.9" fill="none" stroke="#cfdcaa" stroke-width="1.8" stroke-linecap="round"/><path d="M192 89.3 Q191.9 85.8 190 83.4" fill="none" stroke="#cfdcaa" stroke-width="1.8" stroke-linecap="round"/><path d="M261.9 134.2 Q262.9 130.3 265.4 127.7" fill="none" stroke="#cfdcaa" stroke-width="1.8" stroke-linecap="round"/><path d="M262.3 134.2 Q263.2 130.3 263.8 127.8" fill="none" stroke="#cfdcaa" stroke-width="1.8" stroke-linecap="round"/><path d="M310.7 155.4 Q309.9 152.8 311 151.1" fill="none" stroke="#cfdcaa" stroke-width="1.8" stroke-linecap="round"/><path d="M312.5 155.4 Q315.5 151.7 318.9 149.3" fill="none" stroke="#cfdcaa" stroke-width="1.8" stroke-linecap="round"/><path d="M279.7 113.9 Q278.6 109.1 277.8 106" fill="none" stroke="#cfdcaa" stroke-width="1.8" stroke-linecap="round"/><path d="M280.7 113.9 Q281 109 280.3 105.8" fill="none" stroke="#cfdcaa" stroke-width="1.8" stroke-linecap="round"/><path d="M158.5 90.3 Q156.8 87 153.8 84.8" fill="none" stroke="#cfdcaa" stroke-width="1.8" stroke-linecap="round"/><path d="M159.7 90.3 Q162.1 87.1 164.5 84.9" fill="none" stroke="#cfdcaa" stroke-width="1.8" stroke-linecap="round"/><path d="M204.8 87.7 Q201.8 83 198.5 79.8" fill="none" stroke="#cfdcaa" stroke-width="1.8" stroke-linecap="round"/><path d="M206.9 87.7 Q208.4 83.9 207.7 81.3" fill="none" stroke="#cfdcaa" stroke-width="1.8" stroke-linecap="round"/><path d="M159.2 180 Q159.9 177 161.7 174.9" fill="none" stroke="#cfdcaa" stroke-width="1.8" stroke-linecap="round"/><path d="M159.4 180 Q161.2 177.4 164.7 175.6" fill="none" stroke="#cfdcaa" stroke-width="1.8" stroke-linecap="round"/><path d="M239.2 112.6 Q236.5 109.6 232.8 107.6" fill="none" stroke="#cfdcaa" stroke-width="1.8" stroke-linecap="round"/><path d="M240.9 112.6 Q243.2 108.5 245.1 105.8" fill="none" stroke="#cfdcaa" stroke-width="1.8" stroke-linecap="round"/><path d="M194.3 96 Q192.9 92.6 191.9 90.3" fill="none" stroke="#cfdcaa" stroke-width="1.8" stroke-linecap="round"/><path d="M195.8 96 Q198 92.9 200.1 90.9" fill="none" stroke="#cfdcaa" stroke-width="1.8" stroke-linecap="round"/><path d="M249.5 145.1 Q246.5 140.8 243.2 137.9" fill="none" stroke="#cfdcaa" stroke-width="1.8" stroke-linecap="round"/><path d="M250.9 145.1 Q250.1 141 247.3 138.3" fill="none" stroke="#cfdcaa" stroke-width="1.8" stroke-linecap="round"/><path d="M326.5 101.1 Q325.5 97.5 326.2 95.1" fill="none" stroke="#cfdcaa" stroke-width="1.8" stroke-linecap="round"/><path d="M328.1 101.1 Q330.8 97.2 334.5 94.6" fill="none" stroke="#cfdcaa" stroke-width="1.8" stroke-linecap="round"/><path d="M98.6 117.2 Q97.3 113.4 96.1 110.8" fill="none" stroke="#cfdcaa" stroke-width="1.8" stroke-linecap="round"/><path d="M99.6 117.2 Q99.2 113.3 96.8 110.6" fill="none" stroke="#cfdcaa" stroke-width="1.8" stroke-linecap="round"/><path d="M139.4 102 Q138.5 99.2 138.2 97.3" fill="none" stroke="#cfdcaa" stroke-width="1.8" stroke-linecap="round"/><path d="M139.9 102 Q140.1 98.8 140.1 96.7" fill="none" stroke="#cfdcaa" stroke-width="1.8" stroke-linecap="round"/><path d="M184.5 158.6 Q184.2 154.4 185.7 151.5" fill="none" stroke="#cfdcaa" stroke-width="1.8" stroke-linecap="round"/><path d="M185.9 158.6 Q187.7 154.1 189.5 151" fill="none" stroke="#cfdcaa" stroke-width="1.8" stroke-linecap="round"/><path d="M339.2 157.5 Q338 153.8 339.2 151.3" fill="none" stroke="#cfdcaa" stroke-width="1.8" stroke-linecap="round"/><path d="M340.9 157.5 Q343.4 153.8 347.2 151.4" fill="none" stroke="#cfdcaa" stroke-width="1.8" stroke-linecap="round"/><path d="M367.1 119.6 Q366.8 116.2 366.5 113.9" fill="none" stroke="#cfdcaa" stroke-width="1.8" stroke-linecap="round"/><path d="M368.2 119.6 Q371.5 115 375.6 111.9" fill="none" stroke="#cfdcaa" stroke-width="1.8" stroke-linecap="round"/><path d="M90.2 138 Q91.3 132.7 94.5 129.2" fill="none" stroke="#cfdcaa" stroke-width="1.8" stroke-linecap="round"/><path d="M91 138 Q91 134.2 88.9 131.7" fill="none" stroke="#cfdcaa" stroke-width="1.8" stroke-linecap="round"/><path d="M203.3 52.8 Q202.5 47.9 203.2 44.6" fill="none" stroke="#cfdcaa" stroke-width="1.8" stroke-linecap="round"/><path d="M204.5 52.8 Q206.3 49 208.4 46.5" fill="none" stroke="#cfdcaa" stroke-width="1.8" stroke-linecap="round"/><path d="M140.1 55.1 Q141 51.6 143.9 49.3" fill="none" stroke="#cfdcaa" stroke-width="1.8" stroke-linecap="round"/><path d="M141.3 55.1 Q144.4 51.9 148.4 49.7" fill="none" stroke="#cfdcaa" stroke-width="1.8" stroke-linecap="round"/><path d="M250.4 134.2 Q248 131 244.1 128.9" fill="none" stroke="#cfdcaa" stroke-width="1.8" stroke-linecap="round"/><path d="M251.7 134.2 Q254.3 130.2 257.4 127.4" fill="none" stroke="#cfdcaa" stroke-width="1.8" stroke-linecap="round"/><path d="M88.6 90.3 Q87.2 85.7 87.8 82.7" fill="none" stroke="#cfdcaa" stroke-width="1.8" stroke-linecap="round"/><path d="M89.9 90.3 Q89.4 84.7 87.4 80.9" fill="none" stroke="#cfdcaa" stroke-width="1.8" stroke-linecap="round"/><path d="M176.3 71 Q173.9 67.7 172 65.5" fill="none" stroke="#cfdcaa" stroke-width="1.8" stroke-linecap="round"/><path d="M178.2 71 Q178.3 67.4 175.6 64.9" fill="none" stroke="#cfdcaa" stroke-width="1.8" stroke-linecap="round"/><path d="M286.2 176.3 Q287 171 289.6 167.5" fill="none" stroke="#cfdcaa" stroke-width="1.8" stroke-linecap="round"/><path d="M287.2 176.3 Q288.1 172 287.8 169.1" fill="none" stroke="#cfdcaa" stroke-width="1.8" stroke-linecap="round"/><path d="M223.7 107.6 Q221.7 104.7 218.6 102.8" fill="none" stroke="#cfdcaa" stroke-width="1.8" stroke-linecap="round"/><path d="M224.8 107.6 Q227 105.1 230.2 103.4" fill="none" stroke="#cfdcaa" stroke-width="1.8" stroke-linecap="round"/><path d="M141.3 182.6 Q141.7 179.8 143.8 178" fill="none" stroke="#cfdcaa" stroke-width="1.8" stroke-linecap="round"/><path d="M142.2 182.6 Q144.2 180.1 146.8 178.4" fill="none" stroke="#cfdcaa" stroke-width="1.8" stroke-linecap="round"/><path d="M147.1 85.9 Q147.6 82.4 149.7 80.1" fill="none" stroke="#cfdcaa" stroke-width="1.8" stroke-linecap="round"/><path d="M147.9 85.9 Q147.5 82.4 145.4 80.1" fill="none" stroke="#cfdcaa" stroke-width="1.8" stroke-linecap="round"/><path d="M206.3 177.6 Q204.6 173.5 202.2 170.8" fill="none" stroke="#cfdcaa" stroke-width="1.8" stroke-linecap="round"/><path d="M207.6 177.6 Q209.7 173.5 211.9 170.8" fill="none" stroke="#cfdcaa" stroke-width="1.8" stroke-linecap="round"/><path d="M147.8 154.5 Q146.8 150.9 145.6 148.5" fill="none" stroke="#cfdcaa" stroke-width="1.8" stroke-linecap="round"/><path d="M148.7 154.5 Q148.8 151.5 147.1 149.5" fill="none" stroke="#cfdcaa" stroke-width="1.8" stroke-linecap="round"/><path d="M166.6 94.9 Q164.6 90.1 163.5 86.9" fill="none" stroke="#cfdcaa" stroke-width="1.8" stroke-linecap="round"/><path d="M168.2 94.9 Q169.3 90.3 169.9 87.3" fill="none" stroke="#cfdcaa" stroke-width="1.8" stroke-linecap="round"/><path d="M318.9 176.2 Q315.8 171.4 311.9 168.3" fill="none" stroke="#cfdcaa" stroke-width="1.8" stroke-linecap="round"/><path d="M320.4 176.2 Q321.3 171.9 321.1 169.1" fill="none" stroke="#cfdcaa" stroke-width="1.8" stroke-linecap="round"/><path d="M239.3 106.6 Q239.1 101.8 241.1 98.6" fill="none" stroke="#cfdcaa" stroke-width="1.8" stroke-linecap="round"/><path d="M241.2 106.6 Q244.5 102.4 248.3 99.6" fill="none" stroke="#cfdcaa" stroke-width="1.8" stroke-linecap="round"/><path d="M274.2 128.1 Q274.3 124.5 274.9 122.2" fill="none" stroke="#cfdcaa" stroke-width="1.8" stroke-linecap="round"/><path d="M275.2 128.1 Q277.1 124.6 278.9 122.3" fill="none" stroke="#cfdcaa" stroke-width="1.8" stroke-linecap="round"/><path d="M81.8 155.3 Q80.3 150.2 80.2 146.8" fill="none" stroke="#cfdcaa" stroke-width="1.8" stroke-linecap="round"/><path d="M83.2 155.3 Q83.1 151.2 81.1 148.4" fill="none" stroke="#cfdcaa" stroke-width="1.8" stroke-linecap="round"/><path d="M250.7 171.6 Q249.3 167.2 248.7 164.2" fill="none" stroke="#cfdcaa" stroke-width="1.8" stroke-linecap="round"/><path d="M251.6 171.6 Q250.9 167.9 248.3 165.4" fill="none" stroke="#cfdcaa" stroke-width="1.8" stroke-linecap="round"/><path d="M293.5 81.7 Q292.8 78.7 294.5 76.7" fill="none" stroke="#cfdcaa" stroke-width="1.8" stroke-linecap="round"/><path d="M294.9 81.7 Q294.8 78.4 293.4 76.1" fill="none" stroke="#cfdcaa" stroke-width="1.8" stroke-linecap="round"/></svg>