<svg xmlns="http://www.w3.org/2000/svg" width="440" height="240" viewBox="0 0 440 240"><defs><filter id="bl1" x="-50%" y="-50%" width="200%" height="200%"><feGaussianBlur stdDeviation="10"/></filter></defs><path d="M406.6 120 Q406.6 120 395.3 137.5 Q383.9 154.9 349.1 163.6 Q314.3 172.3 283.8 178.4 Q253.3 184.5 215.9 192.5 Q178.4 200.6 152.4 186.3 Q126.4 171.9 84.2 164.9 Q42 157.9 47.9 139 Q53.8 120 51.6 101.8 Q49.4 83.7 77.5 70.1 Q105.6 56.5 144.7 53.2 Q183.8 49.8 222.7 44.6 Q261.6 39.4 302.3 45.6 Q343.1 51.7 366.5 67.8 Q389.9 83.8 398.2 101.9 Z" fill="#b9cb82" filter="url(#bl1)" opacity="0.5"/><path d="M305 78 Q302.5 74.3 298.8 71.8" fill="none" stroke="#6f8c3f" stroke-width="1.5" stroke-linecap="round"/><ellipse cx="308.5" cy="72" rx="2.6" ry="2" fill="#ffd86b" stroke="#b88700" stroke-width="0.7" /><ellipse cx="306.4" cy="73.9" rx="2.6" ry="2" fill="#ffd86b" stroke="#b88700" stroke-width="0.7" /><ellipse cx="303.1" cy="73.1" rx="2.6" ry="2" fill="#ffd86b" stroke="#b88700" stroke-width="0.7" /><ellipse cx="303.1" cy="70.8" rx="2.6" ry="2" fill="#ffd86b" stroke="#b88700" stroke-width="0.7" /><ellipse cx="306.4" cy="70.1" rx="2.6" ry="2" fill="#ffd86b" stroke="#b88700" stroke-width="0.7" /><ellipse cx="305.5" cy="72" rx="1.6" ry="1.6" fill="#e8a23a" /><path d="M145.2 104.8 Q145 101 142.8 98.5" fill="none" stroke="#6f8c3f" stroke-width="1.5" stroke-linecap="round"/><ellipse cx="147.8" cy="98.8" rx="2.6" ry="2" fill="#fff6d8" stroke="#ffcd26" stroke-width="0.7" /><ellipse cx="145.7" cy="100.7" rx="2.6" ry="2" fill="#fff6d8" stroke="#ffcd26" stroke-width="0.7" /><ellipse cx="142.3" cy="100" rx="2.6" ry="2" fill="#fff6d8" stroke="#ffcd26" stroke-width="0.7" /><ellipse cx="142.3" cy="97.6" rx="2.6" ry="2" fill="#fff6d8" stroke="#ffcd26" stroke-width="0.7" /><ellipse cx="145.7" cy="96.9" rx="2.6" ry="2" fill="#fff6d8" stroke="#ffcd26" stroke-width="0.7" /><ellipse cx="144.8" cy="98.8" rx="1.6" ry="1.6" fill="#e8a23a" /><path d="M135.2 146.1 Q133.8 142 130.3 139.3" fill="none" stroke="#6f8c3f" stroke-width="1.5" stroke-linecap="round"/><ellipse cx="138.2" cy="140.1" rx="2.6" ry="2" fill="#c9b5ff" stroke="#4703ff" stroke-width="0.7" /><ellipse cx="136.1" cy="142" rx="2.6" ry="2" fill="#c9b5ff" stroke="#4703ff" stroke-width="0.7" /><ellipse cx="132.8" cy="141.3" rx="2.6" ry="2" fill="#c9b5ff" stroke="#4703ff" stroke-width="0.7" /><ellipse cx="132.8" cy="138.9" rx="2.6" ry="2" fill="#c9b5ff" stroke="#4703ff" stroke-width="0.7" /><ellipse cx="136.1" cy="138.2" rx="2.6" ry="2" fill="#c9b5ff" stroke="#4703ff" stroke-width="0.7" /><ellipse cx="135.2" cy="140.1" rx="1.6" ry="1.6" fill="#e8a23a" /><path d="M130 162 Q130.4 157.8 132.7 155" fill="none" stroke="#6f8c3f" stroke-width="1.5" stroke-linecap="round"/><ellipse cx="133.4" cy="156" rx="2.6" ry="2" fill="#f5a3b8" stroke="#cf1646" stroke-width="0.7" /><ellipse cx="131.4" cy="157.9" rx="2.6" ry="2" fill="#f5a3b8" stroke="#cf1646" stroke-width="0.7" /><ellipse cx="128" cy="157.2" rx="2.6" ry="2" fill="#f5a3b8" stroke="#cf1646" stroke-width="0.7" /><ellipse cx="128" cy="154.8" rx="2.6" ry="2" fill="#f5a3b8" stroke="#cf1646" stroke-width="0.7" /><ellipse cx="131.4" cy="154.1" rx="2.6" ry="2" fill="#f5a3b8" stroke="#cf1646" stroke-width="0.7" /><ellipse cx="130.4" cy="156" rx="1.6" ry="1.6" fill="#e8a23a" /><path d="M182 138 Q181.5 133.1 181.9 129.8" fill="none" stroke="#6f8c3f" stroke-width="1.5" stroke-linecap="round"/><ellipse cx="185.4" cy="132" rx="2.6" ry="2" fill="#f5a3b8" stroke="#cf1646" stroke-width="0.7" /><ellipse cx="183.3" cy="133.9" rx="2.6" ry="2" fill="#f5a3b8" stroke="#cf1646" stroke-width="0.7" /><ellipse cx="180" cy="133.2" rx="2.6" ry="2" fill="#f5a3b8" stroke="#cf1646" stroke-width="0.7" /><ellipse cx="180" cy="130.9" rx="2.6" ry="2" fill="#f5a3b8" stroke="#cf1646" stroke-width="0.7" /><ellipse cx="183.3" cy="130.1" rx="2.6" ry="2" fill="#f5a3b8" stroke="#cf1646" stroke-width="0.7" /><ellipse cx="182.4" cy="132" rx="1.6" ry="1.6" fill="#e8a23a" /><path d="M192.2 182.2 Q191.2 177.1 188 173.7" fill="none" stroke="#6f8c3f" stroke-width="1.5" stroke-linecap="round"/><ellipse cx="195" cy="176.2" rx="2.6" ry="2" fill="#c9b5ff" stroke="#4703ff" stroke-width="0.7" /><ellipse cx="192.9" cy="178.1" rx="2.6" ry="2" fill="#c9b5ff" stroke="#4703ff" stroke-width="0.7" /><ellipse cx="189.5" cy="177.4" rx="2.6" ry="2" fill="#c9b5ff" stroke="#4703ff" stroke-width="0.7" /><ellipse cx="189.5" cy="175" rx="2.6" ry="2" fill="#c9b5ff" stroke="#4703ff" stroke-width="0.7" /><ellipse cx="192.9" cy="174.3" rx="2.6" ry="2" fill="#c9b5ff" stroke="#4703ff" stroke-width="0.7" /><ellipse cx="192" cy="176.2" rx="1.6" ry="1.6" fill="#e8a23a" /><path d="M238.7 140.6 Q236.7 136.8 233.5 134.3" fill="none" stroke="#6f8c3f" stroke-width="1.5" stroke-linecap="round"/><ellipse cx="242.1" cy="134.6" rx="2.6" ry="2" fill="#c9b5ff" stroke="#4703ff" stroke-width="0.7" /><ellipse cx="240" cy="136.5" rx="2.6" ry="2" fill="#c9b5ff" stroke="#4703ff" stroke-width="0.7" /><ellipse cx="236.7" cy="135.7" rx="2.6" ry="2" fill="#c9b5ff" stroke="#4703ff" stroke-width="0.7" /><ellipse cx="236.7" cy="133.4" rx="2.6" ry="2" fill="#c9b5ff" stroke="#4703ff" stroke-width="0.7" /><ellipse cx="240" cy="132.7" rx="2.6" ry="2" fill="#c9b5ff" stroke="#4703ff" stroke-width="0.7" /><ellipse cx="239.1" cy="134.6" rx="1.6" ry="1.6" fill="#e8a23a" /><path d="M146.9 94.4 Q146.3 89.9 146 86.9" fill="none" stroke="#6f8c3f" stroke-width="1.5" stroke-linecap="round"/><ellipse cx="150.2" cy="88.4" rx="2.6" ry="2" fill="#c9b5ff" stroke="#4703ff" stroke-width="0.7" /><ellipse cx="148.2" cy="90.3" rx="2.6" ry="2" fill="#c9b5ff" stroke="#4703ff" stroke-width="0.7" /><ellipse cx="144.8" cy="89.6" rx="2.6" ry="2" fill="#c9b5ff" stroke="#4703ff" stroke-width="0.7" /><ellipse cx="144.8" cy="87.2" rx="2.6" ry="2" fill="#c9b5ff" stroke="#4703ff" stroke-width="0.7" /><ellipse cx="148.2" cy="86.5" rx="2.6" ry="2" fill="#c9b5ff" stroke="#4703ff" stroke-width="0.7" /><ellipse cx="147.2" cy="88.4" rx="1.6" ry="1.6" fill="#e8a23a" /><path d="M308 102.5 Q309.3 99.1 311 96.8" fill="none" stroke="#6f8c3f" stroke-width="1.5" stroke-linecap="round"/><ellipse cx="310.7" cy="96.5" rx="2.6" ry="2" fill="#f5a3b8" stroke="#cf1646" stroke-width="0.7" /><ellipse cx="308.6" cy="98.4" rx="2.6" ry="2" fill="#f5a3b8" stroke="#cf1646" stroke-width="0.7" /><ellipse cx="305.2" cy="97.6" rx="2.6" ry="2" fill="#f5a3b8" stroke="#cf1646" stroke-width="0.7" /><ellipse cx="305.2" cy="95.3" rx="2.6" ry="2" fill="#f5a3b8" stroke="#cf1646" stroke-width="0.7" /><ellipse cx="308.6" cy="94.6" rx="2.6" ry="2" fill="#f5a3b8" stroke="#cf1646" stroke-width="0.7" /><ellipse cx="307.7" cy="96.5" rx="1.6" ry="1.6" fill="#e8a23a" /><path d="M288.3 171.5 Q289.3 168 290.3 165.6" fill="none" stroke="#6f8c3f" stroke-width="1.5" stroke-linecap="round"/><ellipse cx="290.9" cy="165.5" rx="2.6" ry="2" fill="#c9b5ff" stroke="#4703ff" stroke-width="0.7" /><ellipse cx="288.9" cy="167.4" rx="2.6" ry="2" fill="#c9b5ff" stroke="#4703ff" stroke-width="0.7" /><ellipse cx="285.5" cy="166.7" rx="2.6" ry="2" fill="#c9b5ff" stroke="#4703ff" stroke-width="0.7" /><ellipse cx="285.5" cy="164.3" rx="2.6" ry="2" fill="#c9b5ff" stroke="#4703ff" stroke-width="0.7" /><ellipse cx="288.9" cy="163.6" rx="2.6" ry="2" fill="#c9b5ff" stroke="#4703ff" stroke-width="0.7" /><ellipse cx="287.9" cy="165.5" rx="1.6" ry="1.6" fill="#e8a23a" /><path d="M278.9 182.1 Q277.4 176.9 274.2 173.5" fill="none" stroke="#6f8c3f" stroke-width="1.5" stroke-linecap="round"/><ellipse cx="282" cy="176.1" rx="2.6" ry="2" fill="#f5a3b8" stroke="#cf1646" stroke-width="0.7" /><ellipse cx="279.9" cy="178" rx="2.6" ry="2" fill="#f5a3b8" stroke="#cf1646" stroke-width="0.7" /><ellipse cx="276.6" cy="177.2" rx="2.6" ry="2" fill="#f5a3b8" stroke="#cf1646" stroke-width="0.7" /><ellipse cx="276.6" cy="174.9" rx="2.6" ry="2" fill="#f5a3b8" stroke="#cf1646" stroke-width="0.7" /><ellipse cx="279.9" cy="174.2" rx="2.6" ry="2" fill="#f5a3b8" stroke="#cf1646" stroke-width="0.7" /><ellipse cx="279" cy="176.1" rx="1.6" ry="1.6" fill="#e8a23a" /><path d="M268.4 93.5 Q268.2 90 269.5 87.6" fill="none" stroke="#6f8c3f" stroke-width="1.5" stroke-linecap="round"/><ellipse cx="271.9" cy="87.5" rx="2.6" ry="2" fill="#ffd86b" stroke="#b88700" stroke-width="0.7" /><ellipse cx="269.9" cy="89.4" rx="2.6" ry="2" fill="#ffd86b" stroke="#b88700" stroke-width="0.7" /><ellipse cx="266.5" cy="88.7" rx="2.6" ry="2" fill="#ffd86b" stroke="#b88700" stroke-width="0.7" /><ellipse cx="266.5" cy="86.3" rx="2.6" ry="2" fill="#ffd86b" stroke="#b88700" stroke-width="0.7" /><ellipse cx="269.9" cy="85.6" rx="2.6" ry="2" fill="#ffd86b" stroke="#b88700" stroke-width="0.7" /><ellipse cx="268.9" cy="87.5" rx="1.6" ry="1.6" fill="#e8a23a" /><path d="M153.3 90.7 Q151.9 85.7 150 82.4" fill="none" stroke="#6f8c3f" stroke-width="1.5" stroke-linecap="round"/><ellipse cx="156.7" cy="84.7" rx="2.6" ry="2" fill="#ffd86b" stroke="#b88700" stroke-width="0.7" /><ellipse cx="154.6" cy="86.6" rx="2.6" ry="2" fill="#ffd86b" stroke="#b88700" stroke-width="0.7" /><ellipse cx="151.2" cy="85.9" rx="2.6" ry="2" fill="#ffd86b" stroke="#b88700" stroke-width="0.7" /><ellipse cx="151.2" cy="83.6" rx="2.6" ry="2" fill="#ffd86b" stroke="#b88700" stroke-width="0.7" /><ellipse cx="154.6" cy="82.8" rx="2.6" ry="2" fill="#ffd86b" stroke="#b88700" stroke-width="0.7" /><ellipse cx="153.7" cy="84.7" rx="1.6" ry="1.6" fill="#e8a23a" /><path d="M269.3 154.5 Q268.1 150.8 265.5 148.4" fill="none" stroke="#6f8c3f" stroke-width="1.5" stroke-linecap="round"/><ellipse cx="272.3" cy="148.5" rx="2.6" ry="2" fill="#ffd86b" stroke="#b88700" stroke-width="0.7" /><ellipse cx="270.2" cy="150.4" rx="2.6" ry="2" fill="#ffd86b" stroke="#b88700" stroke-width="0.7" /><ellipse cx="266.9" cy="149.7" rx="2.6" ry="2" fill="#ffd86b" stroke="#b88700" stroke-width="0.7" /><ellipse cx="266.9" cy="147.3" rx="2.6" ry="2" fill="#ffd86b" stroke="#b88700" stroke-width="0.7" /><ellipse cx="270.2" cy="146.6" rx="2.6" ry="2" fill="#ffd86b" stroke="#b88700" stroke-width="0.7" /><ellipse cx="269.3" cy="148.5" rx="1.6" ry="1.6" fill="#e8a23a" /><path d="M94.5 97 Q95.2 93.4 96.2 90.9" fill="none" stroke="#6f8c3f" stroke-width="1.5" stroke-linecap="round"/><ellipse cx="97.3" cy="91" rx="2.6" ry="2" fill="#f5a3b8" stroke="#cf1646" stroke-width="0.7" /><ellipse cx="95.2" cy="92.9" rx="2.6" ry="2" fill="#f5a3b8" stroke="#cf1646" stroke-width="0.7" /><ellipse cx="91.8" cy="92.2" rx="2.6" ry="2" fill="#f5a3b8" stroke="#cf1646" stroke-width="0.7" /><ellipse cx="91.8" cy="89.9" rx="2.6" ry="2" fill="#f5a3b8" stroke="#cf1646" stroke-width="0.7" /><ellipse cx="95.2" cy="89.1" rx="2.6" ry="2" fill="#f5a3b8" stroke="#cf1646" stroke-width="0.7" /><ellipse cx="94.3" cy="91" rx="1.6" ry="1.6" fill="#e8a23a" /><path d="M203.5 158.7 Q203.9 155.1 204.4 152.6" fill="none" stroke="#6f8c3f" stroke-width="1.5" stroke-linecap="round"/><ellipse cx="206.4" cy="152.7" rx="2.6" ry="2" fill="#c9b5ff" stroke="#4703ff" stroke-width="0.7" /><ellipse cx="204.3" cy="154.6" rx="2.6" ry="2" fill="#c9b5ff" stroke="#4703ff" stroke-width="0.7" /><ellipse cx="201" cy="153.9" rx="2.6" ry="2" fill="#c9b5ff" stroke="#4703ff" stroke-width="0.7" /><ellipse cx="201" cy="151.5" rx="2.6" ry="2" fill="#c9b5ff" stroke="#4703ff" stroke-width="0.7" /><ellipse cx="204.3" cy="150.8" rx="2.6" ry="2" fill="#c9b5ff" stroke="#4703ff" stroke-width="0.7" /><ellipse cx="203.4" cy="152.7" rx="1.6" ry="1.6" fill="#e8a23a" /><path d="M105.3 133.8 Q105.6 130.2 104.3 127.9" fill="none" stroke="#6f8c3f" stroke-width="1.5" stroke-linecap="round"/><ellipse cx="107.8" cy="127.8" rx="2.6" ry="2" fill="#c9b5ff" stroke="#4703ff" stroke-width="0.7" /><ellipse cx="105.7" cy="129.7" rx="2.6" ry="2" fill="#c9b5ff" stroke="#4703ff" stroke-width="0.7" /><ellipse cx="102.3" cy="128.9" rx="2.6" ry="2" fill="#c9b5ff" stroke="#4703ff" stroke-width="0.7" /><ellipse cx="102.3" cy="126.6" rx="2.6" ry="2" fill="#c9b5ff" stroke="#4703ff" stroke-width="0.7" /><ellipse cx="105.7" cy="125.9" rx="2.6" ry="2" fill="#c9b5ff" stroke="#4703ff" stroke-width="0.7" /><ellipse cx="104.8" cy="127.8" rx="1.6" ry="1.6" fill="#e8a23a" /><path d="M321.4 139.5 Q320.2 135.9 317.9 133.5" fill="none" stroke="#6f8c3f" stroke-width="1.5" stroke-linecap="round"/><ellipse cx="324.5" cy="133.5" rx="2.6" ry="2" fill="#c9b5ff" stroke="#4703ff" stroke-width="0.7" /><ellipse cx="322.4" cy="135.4" rx="2.6" ry="2" fill="#c9b5ff" stroke="#4703ff" stroke-width="0.7" /><ellipse cx="319.1" cy="134.7" rx="2.6" ry="2" fill="#c9b5ff" stroke="#4703ff" stroke-width="0.7" /><ellipse cx="319.1" cy="132.4" rx="2.6" ry="2" fill="#c9b5ff" stroke="#4703ff" stroke-width="0.7" /><ellipse cx="322.4" cy="131.6" rx="2.6" ry="2" fill="#c9b5ff" stroke="#4703ff" stroke-width="0.7" /><ellipse cx="321.5" cy="133.5" rx="1.6" ry="1.6" fill="#e8a23a" /><path d="M219.6 74.8 Q220 70.4 221.1 67.5" fill="none" stroke="#6f8c3f" stroke-width="1.5" stroke-linecap="round"/><ellipse cx="222.7" cy="68.8" rx="2.6" ry="2" fill="#fff6d8" stroke="#ffcd26" stroke-width="0.7" /><ellipse cx="220.6" cy="70.7" rx="2.6" ry="2" fill="#fff6d8" stroke="#ffcd26" stroke-width="0.7" /><ellipse cx="217.2" cy="69.9" rx="2.6" ry="2" fill="#fff6d8" stroke="#ffcd26" stroke-width="0.7" /><ellipse cx="217.2" cy="67.6" rx="2.6" ry="2" fill="#fff6d8" stroke="#ffcd26" stroke-width="0.7" /><ellipse cx="220.6" cy="66.9" rx="2.6" ry="2" fill="#fff6d8" stroke="#ffcd26" stroke-width="0.7" /><ellipse cx="219.7" cy="68.8" rx="1.6" ry="1.6" fill="#e8a23a" /><path d="M149.6 173.3 Q149.6 168.3 151 164.9" fill="none" stroke="#6f8c3f" stroke-width="1.5" stroke-linecap="round"/><ellipse cx="153" cy="167.3" rx="2.6" ry="2" fill="#fff6d8" stroke="#ffcd26" stroke-width="0.7" /><ellipse cx="150.9" cy="169.2" rx="2.6" ry="2" fill="#fff6d8" stroke="#ffcd26" stroke-width="0.7" /><ellipse cx="147.6" cy="168.5" rx="2.6" ry="2" fill="#fff6d8" stroke="#ffcd26" stroke-width="0.7" /><ellipse cx="147.6" cy="166.1" rx="2.6" ry="2" fill="#fff6d8" stroke="#ffcd26" stroke-width="0.7" /><ellipse cx="150.9" cy="165.4" rx="2.6" ry="2" fill="#fff6d8" stroke="#ffcd26" stroke-width="0.7" /><ellipse cx="150" cy="167.3" rx="1.6" ry="1.6" fill="#e8a23a" /><path d="M142.4 148.4 Q144.4 143.4 147 140.1" fill="none" stroke="#6f8c3f" stroke-width="1.5" stroke-linecap="round"/><ellipse cx="144.8" cy="142.4" rx="2.6" ry="2" fill="#c9b5ff" stroke="#4703ff" stroke-width="0.7" /><ellipse cx="142.7" cy="144.3" rx="2.6" ry="2" fill="#c9b5ff" stroke="#4703ff" stroke-width="0.7" /><ellipse cx="139.4" cy="143.6" rx="2.6" ry="2" fill="#c9b5ff" stroke="#4703ff" stroke-width="0.7" /><ellipse cx="139.4" cy="141.2" rx="2.6" ry="2" fill="#c9b5ff" stroke="#4703ff" stroke-width="0.7" /><ellipse cx="142.7" cy="140.5" rx="2.6" ry="2" fill="#c9b5ff" stroke="#4703ff" stroke-width="0.7" /><ellipse cx="141.8" cy="142.4" rx="1.6" ry="1.6" fill="#e8a23a" /><path d="M186.7 104.3 Q186.1 99.2 184.9 95.7" fill="none" stroke="#6f8c3f" stroke-width="1.5" stroke-linecap="round"/><ellipse cx="189.7" cy="98.3" rx="2.6" ry="2" fill="#ffd86b" stroke="#b88700" stroke-width="0.7" /><ellipse cx="187.7" cy="100.2" rx="2.6" ry="2" fill="#ffd86b" stroke="#b88700" stroke-width="0.7" /><ellipse cx="184.3" cy="99.5" rx="2.6" ry="2" fill="#ffd86b" stroke="#b88700" stroke-width="0.7" /><ellipse cx="184.3" cy="97.1" rx="2.6" ry="2" fill="#ffd86b" stroke="#b88700" stroke-width="0.7" /><ellipse cx="187.7" cy="96.4" rx="2.6" ry="2" fill="#ffd86b" stroke="#b88700" stroke-width="0.7" /><ellipse cx="186.7" cy="98.3" rx="1.6" ry="1.6" fill="#e8a23a" /><path d="M364.6 142.9 Q364.4 139.3 364.6 136.9" fill="none" stroke="#6f8c3f" stroke-width="1.5" stroke-linecap="round"/><ellipse cx="367.9" cy="136.9" rx="2.6" ry="2" fill="#fff6d8" stroke="#ffcd26" stroke-width="0.7" /><ellipse cx="365.8" cy="138.8" rx="2.6" ry="2" fill="#fff6d8" stroke="#ffcd26" stroke-width="0.7" /><ellipse cx="362.4" cy="138.1" rx="2.6" ry="2" fill="#fff6d8" stroke="#ffcd26" stroke-width="0.7" /><ellipse cx="362.4" cy="135.7" rx="2.6" ry="2" fill="#fff6d8" stroke="#ffcd26" stroke-width="0.7" /><ellipse cx="365.8" cy="135" rx="2.6" ry="2" fill="#fff6d8" stroke="#ffcd26" stroke-width="0.7" /><ellipse cx="364.9" cy="136.9" rx="1.6" ry="1.6" fill="#e8a23a" /><path d="M190.4 106.1 Q189.9 102.5 189.6 100.1" fill="none" stroke="#6f8c3f" stroke-width="1.5" stroke-linecap="round"/><ellipse cx="193.7" cy="100.1" rx="2.6" ry="2" fill="#fff6d8" stroke="#ffcd26" stroke-width="0.7" /><ellipse cx="191.6" cy="102" rx="2.6" ry="2" fill="#fff6d8" stroke="#ffcd26" stroke-width="0.7" /><ellipse cx="188.2" cy="101.3" rx="2.6" ry="2" fill="#fff6d8" stroke="#ffcd26" stroke-width="0.7" /><ellipse cx="188.2" cy="98.9" rx="2.6" ry="2" fill="#fff6d8" stroke="#ffcd26" stroke-width="0.7" /><ellipse cx="191.6" cy="98.2" rx="2.6" ry="2" fill="#fff6d8" stroke="#ffcd26" stroke-width="0.7" /><ellipse cx="190.7" cy="100.1" rx="1.6" ry="1.6" fill="#e8a23a" /><path d="M356.7 98.7 Q357.9 95.2 360.5 92.8" fill="none" stroke="#6f8c3f" stroke-width="1.5" stroke-linecap="round"/><ellipse cx="359.6" cy="92.7" rx="2.6" ry="2" fill="#fff6d8" stroke="#ffcd26" stroke-width="0.7" /><ellipse cx="357.5" cy="94.6" rx="2.6" ry="2" fill="#fff6d8" stroke="#ffcd26" stroke-width="0.7" /><ellipse cx="354.2" cy="93.9" rx="2.6" ry="2" fill="#fff6d8" stroke="#ffcd26" stroke-width="0.7" /><ellipse cx="354.2" cy="91.5" rx="2.6" ry="2" fill="#fff6d8" stroke="#ffcd26" stroke-width="0.7" /><ellipse cx="357.5" cy="90.8" rx="2.6" ry="2" fill="#fff6d8" stroke="#ffcd26" stroke-width="0.7" /><ellipse cx="356.6" cy="92.7" rx="1.6" ry="1.6" fill="#e8a23a" /><path d="M141.5 128.6 Q143 123.4 145.5 119.9" fill="none" stroke="#6f8c3f" stroke-width="1.5" stroke-linecap="round"/><ellipse cx="144.2" cy="122.6" rx="2.6" ry="2" fill="#f5a3b8" stroke="#cf1646" stroke-width="0.7" /><ellipse cx="142.1" cy="124.5" rx="2.6" ry="2" fill="#f5a3b8" stroke="#cf1646" stroke-width="0.7" /><ellipse cx="138.7" cy="123.7" rx="2.6" ry="2" fill="#f5a3b8" stroke="#cf1646" stroke-width="0.7" /><ellipse cx="138.7" cy="121.4" rx="2.6" ry="2" fill="#f5a3b8" stroke="#cf1646" stroke-width="0.7" /><ellipse cx="142.1" cy="120.7" rx="2.6" ry="2" fill="#f5a3b8" stroke="#cf1646" stroke-width="0.7" /><ellipse cx="141.2" cy="122.6" rx="1.6" ry="1.6" fill="#e8a23a" /><path d="M134.3 149.4 Q134.9 145.4 135.6 142.7" fill="none" stroke="#6f8c3f" stroke-width="1.5" stroke-linecap="round"/><ellipse cx="137.2" cy="143.4" rx="2.6" ry="2" fill="#c9b5ff" stroke="#4703ff" stroke-width="0.7" /><ellipse cx="135.2" cy="145.3" rx="2.6" ry="2" fill="#c9b5ff" stroke="#4703ff" stroke-width="0.7" /><ellipse cx="131.8" cy="144.6" rx="2.6" ry="2" fill="#c9b5ff" stroke="#4703ff" stroke-width="0.7" /><ellipse cx="131.8" cy="142.3" rx="2.6" ry="2" fill="#c9b5ff" stroke="#4703ff" stroke-width="0.7" /><ellipse cx="135.2" cy="141.5" rx="2.6" ry="2" fill="#c9b5ff" stroke="#4703ff" stroke-width="0.7" /><ellipse cx="134.2" cy="143.4" rx="1.6" ry="1.6" fill="#e8a23a" /><path d="M312.5 157.3 Q314.1 153.2 317 150.4" fill="none" stroke="#6f8c3f" stroke-width="1.5" stroke-linecap="round"/><ellipse cx="315.2" cy="151.3" rx="2.6" ry="2" fill="#c9b5ff" stroke="#4703ff" stroke-width="0.7" /><ellipse cx="313.2" cy="153.2" rx="2.6" ry="2" fill="#c9b5ff" stroke="#4703ff" stroke-width="0.7" /><ellipse cx="309.8" cy="152.4" rx="2.6" ry="2" fill="#c9b5ff" stroke="#4703ff" stroke-width="0.7" /><ellipse cx="309.8" cy="150.1" rx="2.6" ry="2" fill="#c9b5ff" stroke="#4703ff" stroke-width="0.7" /><ellipse cx="313.2" cy="149.4" rx="2.6" ry="2" fill="#c9b5ff" stroke="#4703ff" stroke-width="0.7" /><ellipse cx="312.2" cy="151.3" rx="1.6" ry="1.6" fill="#e8a23a" /><path d="M244.1 143.5 Q242.6 139.9 240 137.5" fill="none" stroke="#6f8c3f" stroke-width="1.5" stroke-linecap="round"/><ellipse cx="247.3" cy="137.5" rx="2.6" ry="2" fill="#c9b5ff" stroke="#4703ff" stroke-width="0.7" /><ellipse cx="245.3" cy="139.4" rx="2.6" ry="2" fill="#c9b5ff" stroke="#4703ff" stroke-width="0.7" /><ellipse cx="241.9" cy="138.7" rx="2.6" ry="2" fill="#c9b5ff" stroke="#4703ff" stroke-width="0.7" /><ellipse cx="241.9" cy="136.3" rx="2.6" ry="2" fill="#c9b5ff" stroke="#4703ff" stroke-width="0.7" /><ellipse cx="245.3" cy="135.6" rx="2.6" ry="2" fill="#c9b5ff" stroke="#4703ff" stroke-width="0.7" /><ellipse cx="244.3" cy="137.5" rx="1.6" ry="1.6" fill="#e8a23a" /><path d="M234.8 110.4 Q234.4 105.6 232.2 102.5" fill="none" stroke="#6f8c3f" stroke-width="1.5" stroke-linecap="round"/><ellipse cx="237.4" cy="104.4" rx="2.6" ry="2" fill="#c9b5ff" stroke="#4703ff" stroke-width="0.7" /><ellipse cx="235.4" cy="106.3" rx="2.6" ry="2" fill="#c9b5ff" stroke="#4703ff" stroke-width="0.7" /><ellipse cx="232" cy="105.6" rx="2.6" ry="2" fill="#c9b5ff" stroke="#4703ff" stroke-width="0.7" /><ellipse cx="232" cy="103.2" rx="2.6" ry="2" fill="#c9b5ff" stroke="#4703ff" stroke-width="0.7" /><ellipse cx="235.4" cy="102.5" rx="2.6" ry="2" fill="#c9b5ff" stroke="#4703ff" stroke-width="0.7" /><ellipse cx="234.4" cy="104.4" rx="1.6" ry="1.6" fill="#e8a23a" /><path d="M122.3 84.2 Q121.7 79.6 120.3 76.6" fill="none" stroke="#6f8c3f" stroke-width="1.5" stroke-linecap="round"/><ellipse cx="125.3" cy="78.2" rx="2.6" ry="2" fill="#c9b5ff" stroke="#4703ff" stroke-width="0.7" /><ellipse cx="123.2" cy="80.1" rx="2.6" ry="2" fill="#c9b5ff" stroke="#4703ff" stroke-width="0.7" /><ellipse cx="119.9" cy="79.4" rx="2.6" ry="2" fill="#c9b5ff" stroke="#4703ff" stroke-width="0.7" /><ellipse cx="119.9" cy="77" rx="2.6" ry="2" fill="#c9b5ff" stroke="#4703ff" stroke-width="0.7" /><ellipse cx="123.2" cy="76.3" rx="2.6" ry="2" fill="#c9b5ff" stroke="#4703ff" stroke-width="0.7" /><ellipse cx="122.3" cy="78.2" rx="1.6" ry="1.6" fill="#e8a23a" /><path d="M181.5 193.1 Q179.8 188.6 176.3 185.7" fill="none" stroke="#6f8c3f" stroke-width="1.5" stroke-linecap="round"/><ellipse cx="184.7" cy="187.1" rx="2.6" ry="2" fill="#f5a3b8" stroke="#cf1646" stroke-width="0.7" /><ellipse cx="182.6" cy="189" rx="2.6" ry="2" fill="#f5a3b8" stroke="#cf1646" stroke-width="0.7" /><ellipse cx="179.3" cy="188.3" rx="2.6" ry="2" fill="#f5a3b8" stroke="#cf1646" stroke-width="0.7" /><ellipse cx="179.3" cy="185.9" rx="2.6" ry="2" fill="#f5a3b8" stroke="#cf1646" stroke-width="0.7" /><ellipse cx="182.6" cy="185.2" rx="2.6" ry="2" fill="#f5a3b8" stroke="#cf1646" stroke-width="0.7" /><ellipse cx="181.7" cy="187.1" rx="1.6" ry="1.6" fill="#e8a23a" /><path d="M118.5 153.6 Q118.4 148.4 118.9 144.9" fill="none" stroke="#6f8c3f" stroke-width="1.5" stroke-linecap="round"/><ellipse cx="121.7" cy="147.6" rx="2.6" ry="2" fill="#ffd86b" stroke="#b88700" stroke-width="0.7" /><ellipse cx="119.6" cy="149.5" rx="2.6" ry="2" fill="#ffd86b" stroke="#b88700" stroke-width="0.7" /><ellipse cx="116.3" cy="148.8" rx="2.6" ry="2" fill="#ffd86b" stroke="#b88700" stroke-width="0.7" /><ellipse cx="116.3" cy="146.4" rx="2.6" ry="2" fill="#ffd86b" stroke="#b88700" stroke-width="0.7" /><ellipse cx="119.6" cy="145.7" rx="2.6" ry="2" fill="#ffd86b" stroke="#b88700" stroke-width="0.7" /><ellipse cx="118.7" cy="147.6" rx="1.6" ry="1.6" fill="#e8a23a" /><path d="M229.8 143.4 Q228.7 139.9 226.2 137.5" fill="none" stroke="#6f8c3f" stroke-width="1.5" stroke-linecap="round"/><ellipse cx="232.8" cy="137.4" rx="2.6" ry="2" fill="#c9b5ff" stroke="#4703ff" stroke-width="0.7" /><ellipse cx="230.8" cy="139.3" rx="2.6" ry="2" fill="#c9b5ff" stroke="#4703ff" stroke-width="0.7" /><ellipse cx="227.4" cy="138.6" rx="2.6" ry="2" fill="#c9b5ff" stroke="#4703ff" stroke-width="0.7" /><ellipse cx="227.4" cy="136.2" rx="2.6" ry="2" fill="#c9b5ff" stroke="#4703ff" stroke-width="0.7" /><ellipse cx="230.8" cy="135.5" rx="2.6" ry="2" fill="#c9b5ff" stroke="#4703ff" stroke-width="0.7" /><ellipse cx="229.8" cy="137.4" rx="1.6" ry="1.6" fill="#e8a23a" /></svg>