<svg xmlns="http://www.w3.org/2000/svg" width="440" height="240" viewBox="0 0 440 240"><defs><filter id="bl1" x="-50%" y="-50%" width="200%" height="200%"><feGaussianBlur stdDeviation="10"/></filter></defs><path d="M130.8 66.7 Q129.7 63.1 131.3 60.6" fill="none" stroke="#a1bb7c" stroke-width="1.8" stroke-linecap="round"/><path d="M132 66.7 Q131.3 62.2 129.8 59.2" fill="none" stroke="#a1bb7c" stroke-width="1.8" stroke-linecap="round"/><path d="M254.4 181.6 Q255.5 178.8 258.5 176.9" fill="none" stroke="#a1bb7c" stroke-width="1.8" stroke-linecap="round"/><path d="M255.6 181.6 Q257.6 177.9 258.2 175.4" fill="none" stroke="#a1bb7c" stroke-width="1.8" stroke-linecap="round"/><path d="M154.4 113.9 Q153.2 110.5 152.8 108.2" fill="none" stroke="#a1bb7c" stroke-width="1.8" stroke-linecap="round"/><path d="M155.1 113.9 Q155.4 109.7 156.1 107" fill="none" stroke="#a1bb7c" stroke-width="1.8" stroke-linecap="round"/><path d="M112.4 143.6 Q109.8 139.5 106.5 136.7" fill="none" stroke="#a1bb7c" stroke-width="1.8" stroke-linecap="round"/><path d="M113.5 143.6 Q112.9 140.3 110.8 138" fill="none" stroke="#a1bb7c" stroke-width="1.8" stroke-linecap="round"/><path d="M252.3 139.5 Q251.3 135.3 249.9 132.5" fill="none" stroke="#a1bb7c" stroke-width="1.8" stroke-linecap="round"/><path d="M253 139.5 Q254.7 135.8 257.4 133.4" fill="none" stroke="#a1bb7c" stroke-width="1.8" stroke-linecap="round"/><path d="M301.1 161.8 Q299.7 157.9 300.4 155.3" fill="none" stroke="#a1bb7c" stroke-width="1.8" stroke-linecap="round"/><path d="M302.8 161.8 Q303.2 158 301.9 155.5" fill="none" stroke="#a1bb7c" stroke-width="1.8" stroke-linecap="round"/><path d="M204 88.7 Q203.1 85.3 205 83" fill="none" stroke="#a1bb7c" stroke-width="1.8" stroke-linecap="round"/><path d="M206.2 88.7 Q207.8 83.7 208.5 80.4" fill="none" stroke="#a1bb7c" stroke-width="1.8" stroke-linecap="round"/><path d="M200.5 184.1 Q200 181.4 198.9 179.5" fill="none" stroke="#a1bb7c" stroke-width="1.8" stroke-linecap="round"/><path d="M201.4 184.1 Q204.4 181.3 207.9 179.4" fill="none" stroke="#a1bb7c" stroke-width="1.8" stroke-linecap="round"/><path d="M153.1 134.1 Q152.7 129.9 153.7 127.1" fill="none" stroke="#a1bb7c" stroke-width="1.8" stroke-linecap="round"/><path d="M154.5 134.1 Q156.5 130.3 158.3 127.8" fill="none" stroke="#a1bb7c" stroke-width="1.8" stroke-linecap="round"/><path d="M351.5 98.1 Q349.1 94.5 347.6 92.2" fill="none" stroke="#a1bb7c" stroke-width="1.8" stroke-linecap="round"/><path d="M352.9 98.1 Q352.1 94.7 349.5 92.5" fill="none" stroke="#a1bb7c" stroke-width="1.8" stroke-linecap="round"/><path d="M119.3 157.4 Q117.8 153.5 115.8 150.9" fill="none" stroke="#a1bb7c" stroke-width="1.8" stroke-linecap="round"/><path d="M120.7 157.4 Q123.8 153.5 128 150.8" fill="none" stroke="#a1bb7c" stroke-width="1.8" stroke-linecap="round"/><path d="M280.1 74.6 Q279.8 71.8 281.8 69.9" fill="none" stroke="#a1bb7c" stroke-width="1.8" stroke-linecap="round"/><path d="M281.4 74.6 Q281.8 71.7 280.9 69.8" fill="none" stroke="#a1bb7c" stroke-width="1.8" stroke-linecap="round"/><path d="M147.4 150.3 Q146.5 145.4 144.9 142.1" fill="none" stroke="#a1bb7c" stroke-width="1.8" stroke-linecap="round"/><path d="M148.1 150.3 Q149.5 145.9 150.6 143" fill="none" stroke="#a1bb7c" stroke-width="1.8" stroke-linecap="round"/><path d="M216.1 104 Q215 100.1 214.9 97.4" fill="none" stroke="#a1bb7c" stroke-width="1.8" stroke-linecap="round"/><path d="M217.7 104 Q220.8 99.1 224.8 95.8" fill="none" stroke="#a1bb7c" stroke-width="1.8" stroke-linecap="round"/><path d="M237.1 156.7 Q234.6 154.4 232.8 152.8" fill="none" stroke="#a1bb7c" stroke-width="1.8" stroke-linecap="round"/><path d="M239.2 156.7 Q240.2 154.2 238.9 152.6" fill="none" stroke="#a1bb7c" stroke-width="1.8" stroke-linecap="round"/><path d="M362 91.3 Q360.4 88 358 85.8" fill="none" stroke="#a1bb7c" stroke-width="1.8" stroke-linecap="round"/><path d="M363.6 91.3 Q366.9 88.3 370.7 86.3" fill="none" stroke="#a1bb7c" stroke-width="1.8" stroke-linecap="round"/><path d="M288.7 173 Q288.9 170.1 290.6 168.2" fill="none" stroke="#a1bb7c" stroke-width="1.8" stroke-linecap="round"/><path d="M289.7 173 Q291.9 169.4 294.8 167" fill="none" stroke="#a1bb7c" stroke-width="1.8" stroke-linecap="round"/><path d="M64.5 111.4 Q64.6 108.3 66 106.1" fill="none" stroke="#a1bb7c" stroke-width="1.8" stroke-linecap="round"/><path d="M65.2 111.4 Q67 108.7 70.1 106.9" fill="none" stroke="#a1bb7c" stroke-width="1.8" stroke-linecap="round"/><path d="M170.6 122.3 Q167.5 117.9 163.6 114.9" fill="none" stroke="#a1bb7c" stroke-width="1.8" stroke-linecap="round"/><path d="M172 122.3 Q171.7 118.8 169.4 116.4" fill="none" stroke="#a1bb7c" stroke-width="1.8" stroke-linecap="round"/><path d="M114 166.3 Q112.4 161.4 110.1 158.2" fill="none" stroke="#a1bb7c" stroke-width="1.8" stroke-linecap="round"/><path d="M115.5 166.3 Q117.2 161.8 117.2 158.9" fill="none" stroke="#a1bb7c" stroke-width="1.8" stroke-linecap="round"/><path d="M345.2 115.5 Q342.8 111.9 340.1 109.5" fill="none" stroke="#a1bb7c" stroke-width="1.8" stroke-linecap="round"/><path d="M346.3 115.5 Q347.7 112.3 349.8 110.1" fill="none" stroke="#a1bb7c" stroke-width="1.8" stroke-linecap="round"/><path d="M209.2 152 Q207.7 147.8 208.4 145.1" fill="none" stroke="#a1bb7c" stroke-width="1.8" stroke-linecap="round"/><path d="M211.5 152 Q213.5 147.3 214.1 144.2" fill="none" stroke="#a1bb7c" stroke-width="1.8" stroke-linecap="round"/><path d="M250.1 64.2 Q248.9 60.9 250.2 58.6" fill="none" stroke="#a1bb7c" stroke-width="1.8" stroke-linecap="round"/><path d="M251.8 64.2 Q253.1 60 254.1 57.1" fill="none" stroke="#a1bb7c" stroke-width="1.8" stroke-linecap="round"/><path d="M337.2 109.3 Q335.3 106 331.9 103.8" fill="none" stroke="#a1bb7c" stroke-width="1.8" stroke-linecap="round"/><path d="M337.7 109.3 Q339.4 106.5 342.8 104.7" fill="none" stroke="#a1bb7c" stroke-width="1.8" stroke-linecap="round"/><path d="M229.3 94.4 Q227.8 91.9 225.2 90.3" fill="none" stroke="#a1bb7c" stroke-width="1.8" stroke-linecap="round"/><path d="M230.3 94.4 Q232.3 91.1 234.8 89" fill="none" stroke="#a1bb7c" stroke-width="1.8" stroke-linecap="round"/><path d="M240.5 68.6 Q239.8 63.6 240.4 60.3" fill="none" stroke="#a1bb7c" stroke-width="1.8" stroke-linecap="round"/><path d="M241.8 68.6 Q244.8 63.9 249 60.8" fill="none" stroke="#a1bb7c" stroke-width="1.8" stroke-linecap="round"/><path d="M69.1 128.6 Q67.1 124.6 66.3 121.9" fill="none" stroke="#a1bb7c" stroke-width="1.8" stroke-linecap="round"/><path d="M71.4 128.6 Q73.5 125 74.2 122.5" fill="none" stroke="#a1bb7c" stroke-width="1.8" stroke-linecap="round"/><path d="M174.3 110.7 Q171.7 106.9 168.4 104.4" fill="none" stroke="#a1bb7c" stroke-width="1.8" stroke-linecap="round"/><path d="M175.3 110.7 Q174.5 107 171.6 104.6" fill="none" stroke="#a1bb7c" stroke-width="1.8" stroke-linecap="round"/><path d="M172.1 190.6 Q170.7 186.5 169.1 183.8" fill="none" stroke="#a1bb7c" stroke-width="1.8" stroke-linecap="round"/><path d="M172.8 190.6 Q172.3 186.1 169.9 183.1" fill="none" stroke="#a1bb7c" stroke-width="1.8" stroke-linecap="round"/><path d="M65 102.5 Q62.9 97.2 61.4 93.6" fill="none" stroke="#a1bb7c" stroke-width="1.8" stroke-linecap="round"/><path d="M66.6 102.5 Q68.7 98.4 70.9 95.7" fill="none" stroke="#a1bb7c" stroke-width="1.8" stroke-linecap="round"/><path d="M113.1 75.8 Q111.6 71.2 109 68.1" fill="none" stroke="#a1bb7c" stroke-width="1.8" stroke-linecap="round"/><path d="M113.6 75.8 Q112.5 70.8 109.3 67.6" fill="none" stroke="#a1bb7c" stroke-width="1.8" stroke-linecap="round"/><path d="M150 147.5 Q148.4 141.9 145.3 138.2" fill="none" stroke="#a1bb7c" stroke-width="1.8" stroke-linecap="round"/><path d="M150.5 147.5 Q151 142.5 151 139.1" fill="none" stroke="#a1bb7c" stroke-width="1.8" stroke-linecap="round"/><path d="M173.6 135.2 Q172.3 132.4 169.4 130.6" fill="none" stroke="#a1bb7c" stroke-width="1.8" stroke-linecap="round"/><path d="M173.7 135.2 Q174 131.4 174.5 128.9" fill="none" stroke="#a1bb7c" stroke-width="1.8" stroke-linecap="round"/><path d="M348.7 105.4 Q346.5 101 342.9 98.1" fill="none" stroke="#a1bb7c" stroke-width="1.8" stroke-linecap="round"/><path d="M349.7 105.4 Q351.4 101.2 353.8 98.3" fill="none" stroke="#a1bb7c" stroke-width="1.8" stroke-linecap="round"/><path d="M243.1 71.3 Q241.6 66.6 242.3 63.4" fill="none" stroke="#a1bb7c" stroke-width="1.8" stroke-linecap="round"/><path d="M244.8 71.3 Q246 67.8 246.9 65.4" fill="none" stroke="#a1bb7c" stroke-width="1.8" stroke-linecap="round"/><path d="M305.8 85.5 Q303.2 82.6 299.2 80.7" fill="none" stroke="#a1bb7c" stroke-width="1.8" stroke-linecap="round"/><path d="M306.4 85.5 Q305.3 83.1 302.5 81.5" fill="none" stroke="#a1bb7c" stroke-width="1.8" stroke-linecap="round"/><path d="M189 88.5 Q188 84.6 186.6 82" fill="none" stroke="#a1bb7c" stroke-width="1.8" stroke-linecap="round"/><path d="M190.4 88.5 Q191.3 85.7 189.5 83.8" fill="none" stroke="#a1bb7c" stroke-width="1.8" stroke-linecap="round"/><path d="M116.4 109.8 Q113.8 106.7 109.8 104.6" fill="none" stroke="#a1bb7c" stroke-width="1.8" stroke-linecap="round"/><path d="M117.1 109.8 Q116.9 106.5 115.8 104.2" fill="none" stroke="#a1bb7c" stroke-width="1.8" stroke-linecap="round"/><path d="M178.8 154.6 Q176.3 150.6 172.3 147.8" fill="none" stroke="#a1bb7c" stroke-width="1.8" stroke-linecap="round"/><path d="M179.9 154.6 Q182 150.3 184.5 147.5" fill="none" stroke="#a1bb7c" stroke-width="1.8" stroke-linecap="round"/><path d="M336.8 129.9 Q335.6 125.7 333.7 123" fill="none" stroke="#a1bb7c" stroke-width="1.8" stroke-linecap="round"/><path d="M338.2 129.9 Q341.6 125.4 345.9 122.3" fill="none" stroke="#a1bb7c" stroke-width="1.8" stroke-linecap="round"/><path d="M256.1 88.4 Q253.9 82.7 250.4 78.9" fill="none" stroke="#a1bb7c" stroke-width="1.8" stroke-linecap="round"/><path d="M257.2 88.4 Q256.8 84.3 253.9 81.6" fill="none" stroke="#a1bb7c" stroke-width="1.8" stroke-linecap="round"/><path d="M146.6 124.8 Q145.1 120.3 143 117.2" fill="none" stroke="#a1bb7c" stroke-width="1.8" stroke-linecap="round"/><path d="M148 124.8 Q150.4 120.5 152.3 117.7" fill="none" stroke="#a1bb7c" stroke-width="1.8" stroke-linecap="round"/><path d="M158.2 100.8 Q157.1 97.2 157.5 94.9" fill="none" stroke="#a1bb7c" stroke-width="1.8" stroke-linecap="round"/><path d="M159.9 100.8 Q160.3 98.2 158.1 96.5" fill="none" stroke="#a1bb7c" stroke-width="1.8" stroke-linecap="round"/><path d="M240.7 110.5 Q239.1 107.9 237.7 106.2" fill="none" stroke="#a1bb7c" stroke-width="1.8" stroke-linecap="round"/><path d="M241.5 110.5 Q243.2 106.9 246.4 104.4" fill="none" stroke="#a1bb7c" stroke-width="1.8" stroke-linecap="round"/><path d="M196.2 134.8 Q195.1 130.3 193.9 127.4" fill="none" stroke="#a1bb7c" stroke-width="1.8" stroke-linecap="round"/><path d="M197.6 134.8 Q200.3 129.6 203.5 126.2" fill="none" stroke="#a1bb7c" stroke-width="1.8" stroke-linecap="round"/><path d="M296 58.7 Q296 56.2 298.2 54.6" fill="none" stroke="#a1bb7c" stroke-width="1.8" stroke-linecap="round"/><path d="M296.9 58.7 Q298.4 55.3 300.5 53.1" fill="none" stroke="#a1bb7c" stroke-width="1.8" stroke-linecap="round"/><path d="M261 164.1 Q261.1 160.2 262.6 157.6" fill="none" stroke="#a1bb7c" stroke-width="1.8" stroke-linecap="round"/><path d="M261.7 164.1 Q262.9 160.1 264.4 157.4" fill="none" stroke="#a1bb7c" stroke-width="1.8" stroke-linecap="round"/><path d="M265.2 80.6 Q265.6 76.4 266.9 73.6" fill="none" stroke="#a1bb7c" stroke-width="1.8" stroke-linecap="round"/><path d="M265.4 80.6 Q266 76.2 267.3 73.3" fill="none" stroke="#a1bb7c" stroke-width="1.8" stroke-linecap="round"/><path d="M234.9 84.6 Q234.8 78.9 237.4 75" fill="none" stroke="#a1bb7c" stroke-width="1.8" stroke-linecap="round"/><path d="M235.9 84.6 Q234.8 79.2 231.6 75.7" fill="none" stroke="#a1bb7c" stroke-width="1.8" stroke-linecap="round"/><path d="M331.6 107 Q330 104.3 328.1 102.5" fill="none" stroke="#a1bb7c" stroke-width="1.8" stroke-linecap="round"/><path d="M333.3 107 Q336.6 104.2 340.5 102.2" fill="none" stroke="#a1bb7c" stroke-width="1.8" stroke-linecap="round"/><path d="M227 193.9 Q227.3 190.8 229.5 188.6" fill="none" stroke="#a1bb7c" stroke-width="1.8" stroke-linecap="round"/><path d="M228 193.9 Q230.4 191.1 234.1 189.2" fill="none" stroke="#a1bb7c" stroke-width="1.8" stroke-linecap="round"/><path d="M219.8 114.9 Q219.4 111.4 219.6 109.1" fill="none" stroke="#a1bb7c" stroke-width="1.8" stroke-linecap="round"/><path d="M221.2 114.9 Q222.7 112.5 222.3 110.9" fill="none" stroke="#a1bb7c" stroke-width="1.8" stroke-linecap="round"/><path d="M245.2 83.6 Q243.6 79.5 243.4 76.9" fill="none" stroke="#a1bb7c" stroke-width="1.8" stroke-linecap="round"/><path d="M246.9 83.6 Q247.3 80 245.6 77.7" fill="none" stroke="#a1bb7c" stroke-width="1.8" stroke-linecap="round"/><path d="M212.4 119.8 Q209.5 116.5 205.5 114.3" fill="none" stroke="#a1bb7c" stroke-width="1.8" stroke-linecap="round"/><path d="M213.3 119.8 Q211.9 116.4 208.6 114" fill="none" stroke="#a1bb7c" stroke-width="1.8" stroke-linecap="round"/><path d="M277.8 132.9 Q276 129.6 275.8 127.4" fill="none" stroke="#a1bb7c" stroke-width="1.8" stroke-linecap="round"/><path d="M279.1 132.9 Q280.6 129.3 283.7 126.8" fill="none" stroke="#a1bb7c" stroke-width="1.8" stroke-linecap="round"/></svg>