<svg xmlns="http://www.w3.org/2000/svg" width="440" height="240" viewBox="0 0 440 240"><defs><filter id="bl1" x="-50%" y="-50%" width="200%" height="200%"><feGaussianBlur stdDeviation="10"/></filter></defs><path d="M356.1 129.5 Q353.8 123.8 354.4 120" fill="none" stroke="#746f3c" stroke-width="2" stroke-linecap="round"/><path d="M357.4 129.5 Q357.3 124.8 358.5 121.6" fill="none" stroke="#746f3c" stroke-width="2" stroke-linecap="round"/><path d="M358.8 129.5 Q360.2 125.4 360.3 122.7" fill="none" stroke="#746f3c" stroke-width="2" stroke-linecap="round"/><path d="M359.4 129.5 Q358.4 126.1 357.5 123.8" fill="none" stroke="#d3cc9f" stroke-width="1.4" stroke-linecap="round"/><path d="M360.7 129.5 Q362.4 124.7 363.7 121.5" fill="none" stroke="#d3cc9f" stroke-width="1.4" stroke-linecap="round"/><path d="M264.6 60.2 Q261 53.2 259.1 48.6" fill="none" stroke="#746f3c" stroke-width="2" stroke-linecap="round"/><path d="M266.7 60.2 Q266.9 55.4 266.7 52.2" fill="none" stroke="#746f3c" stroke-width="2" stroke-linecap="round"/><path d="M267.5 60.2 Q270.6 55.4 274 52.2" fill="none" stroke="#746f3c" stroke-width="2" stroke-linecap="round"/><path d="M268 60.2 Q268.4 57.2 271 55.1" fill="none" stroke="#d3cc9f" stroke-width="1.4" stroke-linecap="round"/><path d="M269.6 60.2 Q271 57 270.3 54.9" fill="none" stroke="#d3cc9f" stroke-width="1.4" stroke-linecap="round"/><path d="M159.5 144.3 Q158.6 138 159.4 133.8" fill="none" stroke="#746f3c" stroke-width="2" stroke-linecap="round"/><path d="M160.7 144.3 Q161.4 139.2 161.4 135.9" fill="none" stroke="#746f3c" stroke-width="2" stroke-linecap="round"/><path d="M161.9 144.3 Q166.5 137.8 171.3 133.5" fill="none" stroke="#746f3c" stroke-width="2" stroke-linecap="round"/><path d="M161.7 144.3 Q159.1 141.2 155.3 139.1" fill="none" stroke="#d3cc9f" stroke-width="1.4" stroke-linecap="round"/><path d="M163.4 144.3 Q165.9 141.1 167.8 138.9" fill="none" stroke="#d3cc9f" stroke-width="1.4" stroke-linecap="round"/><path d="M190.5 52.6 Q190.1 45.3 192.4 40.4" fill="none" stroke="#746f3c" stroke-width="2" stroke-linecap="round"/><path d="M191.4 52.6 Q190.1 45.7 187.1 41.2" fill="none" stroke="#746f3c" stroke-width="2" stroke-linecap="round"/><path d="M193 52.6 Q195.6 47.1 196.1 43.5" fill="none" stroke="#746f3c" stroke-width="2" stroke-linecap="round"/><path d="M193.2 52.6 Q192.5 48.4 192 45.6" fill="none" stroke="#d3cc9f" stroke-width="1.4" stroke-linecap="round"/><path d="M194.3 52.6 Q196.6 48.5 199 45.7" fill="none" stroke="#d3cc9f" stroke-width="1.4" stroke-linecap="round"/><path d="M196.4 104.2 Q194.3 99.9 194.3 97.1" fill="none" stroke="#746f3c" stroke-width="2" stroke-linecap="round"/><path d="M197.2 104.2 Q194.8 99.4 191.3 96.3" fill="none" stroke="#746f3c" stroke-width="2" stroke-linecap="round"/><path d="M198.7 104.2 Q199.5 100.9 198.4 98.7" fill="none" stroke="#746f3c" stroke-width="2" stroke-linecap="round"/><path d="M199.4 104.2 Q197.9 100.2 196.1 97.5" fill="none" stroke="#d3cc9f" stroke-width="1.4" stroke-linecap="round"/><path d="M200.6 104.2 Q202.9 99.5 205.6 96.4" fill="none" stroke="#d3cc9f" stroke-width="1.4" stroke-linecap="round"/><path d="M313.4 137.5 Q310.3 132.7 309.1 129.6" fill="none" stroke="#746f3c" stroke-width="2" stroke-linecap="round"/><path d="M315.5 137.5 Q315.1 130.6 312.5 126" fill="none" stroke="#746f3c" stroke-width="2" stroke-linecap="round"/><path d="M316.8 137.5 Q321.6 131.9 326.6 128.2" fill="none" stroke="#746f3c" stroke-width="2" stroke-linecap="round"/><path d="M316 137.5 Q315.2 132.3 317.1 128.8" fill="none" stroke="#d3cc9f" stroke-width="1.4" stroke-linecap="round"/><path d="M317.8 137.5 Q317.7 133 315 129.9" fill="none" stroke="#d3cc9f" stroke-width="1.4" stroke-linecap="round"/><path d="M107.7 124.6 Q105.9 120.5 106.3 117.8" fill="none" stroke="#746f3c" stroke-width="2" stroke-linecap="round"/><path d="M109.4 124.6 Q111.4 120.7 115.2 118.2" fill="none" stroke="#746f3c" stroke-width="2" stroke-linecap="round"/><path d="M110.3 124.6 Q113.3 120.1 115.9 117.2" fill="none" stroke="#746f3c" stroke-width="2" stroke-linecap="round"/><path d="M111 124.6 Q111.8 122.2 114.1 120.6" fill="none" stroke="#d3cc9f" stroke-width="1.4" stroke-linecap="round"/><path d="M112.1 124.6 Q113.6 121.8 113.6 120" fill="none" stroke="#d3cc9f" stroke-width="1.4" stroke-linecap="round"/><path d="M165.1 165.1 Q162.9 159.6 163 156" fill="none" stroke="#746f3c" stroke-width="2" stroke-linecap="round"/><path d="M166.8 165.1 Q168.3 159.7 171.1 156.1" fill="none" stroke="#746f3c" stroke-width="2" stroke-linecap="round"/><path d="M167.6 165.1 Q169.4 159.8 170.4 156.3" fill="none" stroke="#746f3c" stroke-width="2" stroke-linecap="round"/><path d="M168.5 165.1 Q167.6 162 165.7 160" fill="none" stroke="#d3cc9f" stroke-width="1.4" stroke-linecap="round"/><path d="M168.9 165.1 Q168.5 161.5 166.7 159.2" fill="none" stroke="#d3cc9f" stroke-width="1.4" stroke-linecap="round"/><path d="M287.3 142 Q286 135.5 287.7 131.2" fill="none" stroke="#746f3c" stroke-width="2" stroke-linecap="round"/><path d="M288.5 142 Q289 137.3 290.7 134.3" fill="none" stroke="#746f3c" stroke-width="2" stroke-linecap="round"/><path d="M289.8 142 Q290.5 137.6 288.3 134.8" fill="none" stroke="#746f3c" stroke-width="2" stroke-linecap="round"/><path d="M290.3 142 Q289.3 138.5 288.7 136.2" fill="none" stroke="#d3cc9f" stroke-width="1.4" stroke-linecap="round"/><path d="M291.7 142 Q293.3 138.2 293.7 135.7" fill="none" stroke="#d3cc9f" stroke-width="1.4" stroke-linecap="round"/><path d="M210.9 85.1 Q209.2 79.1 208.6 75.1" fill="none" stroke="#746f3c" stroke-width="2" stroke-linecap="round"/><path d="M211.7 85.1 Q210 80.2 206.5 76.9" fill="none" stroke="#746f3c" stroke-width="2" stroke-linecap="round"/><path d="M213.6 85.1 Q218.5 80.8 223.7 77.9" fill="none" stroke="#746f3c" stroke-width="2" stroke-linecap="round"/><path d="M213.3 85.1 Q212.6 80.8 213.2 77.9" fill="none" stroke="#d3cc9f" stroke-width="1.4" stroke-linecap="round"/><path d="M215 85.1 Q216.7 82.1 216.8 80.1" fill="none" stroke="#d3cc9f" stroke-width="1.4" stroke-linecap="round"/><path d="M331.2 171.5 Q327.2 164.9 323.5 160.5" fill="none" stroke="#746f3c" stroke-width="2" stroke-linecap="round"/><path d="M332.9 171.5 Q333.4 166.2 334.2 162.7" fill="none" stroke="#746f3c" stroke-width="2" stroke-linecap="round"/><path d="M334.8 171.5 Q337.8 166 338 162.4" fill="none" stroke="#746f3c" stroke-width="2" stroke-linecap="round"/><path d="M334.2 171.5 Q333.5 167.5 334.2 164.8" fill="none" stroke="#d3cc9f" stroke-width="1.4" stroke-linecap="round"/><path d="M334.8 171.5 Q335.5 168.2 337 166" fill="none" stroke="#d3cc9f" stroke-width="1.4" stroke-linecap="round"/><path d="M368 128.9 Q365.4 123.7 365 120.2" fill="none" stroke="#746f3c" stroke-width="2" stroke-linecap="round"/><path d="M370 128.9 Q370.3 123.2 369.6 119.4" fill="none" stroke="#746f3c" stroke-width="2" stroke-linecap="round"/><path d="M370.6 128.9 Q373.5 122.9 376.6 118.9" fill="none" stroke="#746f3c" stroke-width="2" stroke-linecap="round"/><path d="M371 128.9 Q370.2 124.7 370.4 121.9" fill="none" stroke="#d3cc9f" stroke-width="1.4" stroke-linecap="round"/><path d="M372.6 128.9 Q373.1 125.1 370.9 122.6" fill="none" stroke="#d3cc9f" stroke-width="1.4" stroke-linecap="round"/><path d="M188 158 Q185.2 151 182.7 146.4" fill="none" stroke="#746f3c" stroke-width="2" stroke-linecap="round"/><path d="M189.6 158 Q191.4 151.1 193.6 146.4" fill="none" stroke="#746f3c" stroke-width="2" stroke-linecap="round"/><path d="M190.9 158 Q194.2 150.8 195.6 146" fill="none" stroke="#746f3c" stroke-width="2" stroke-linecap="round"/><path d="M190.1 158 Q189.8 154.6 192 152.3" fill="none" stroke="#d3cc9f" stroke-width="1.4" stroke-linecap="round"/><path d="M191.1 158 Q190.3 153.6 188.5 150.7" fill="none" stroke="#d3cc9f" stroke-width="1.4" stroke-linecap="round"/><path d="M103.2 122.6 Q98.9 117.2 94.5 113.6" fill="none" stroke="#746f3c" stroke-width="2" stroke-linecap="round"/><path d="M104.9 122.6 Q103.9 116.2 101.5 111.9" fill="none" stroke="#746f3c" stroke-width="2" stroke-linecap="round"/><path d="M106.3 122.6 Q110.3 115.2 114 110.3" fill="none" stroke="#746f3c" stroke-width="2" stroke-linecap="round"/><path d="M106.1 122.6 Q106.2 119.8 108.8 117.8" fill="none" stroke="#d3cc9f" stroke-width="1.4" stroke-linecap="round"/><path d="M107.4 122.6 Q107.1 118.5 104.3 115.7" fill="none" stroke="#d3cc9f" stroke-width="1.4" stroke-linecap="round"/><path d="M200.6 101.8 Q196.5 97.2 192.6 94.1" fill="none" stroke="#746f3c" stroke-width="2" stroke-linecap="round"/><path d="M202.3 101.8 Q203.3 97.6 205.2 94.8" fill="none" stroke="#746f3c" stroke-width="2" stroke-linecap="round"/><path d="M203.8 101.8 Q206.7 98.4 207.7 96.2" fill="none" stroke="#746f3c" stroke-width="2" stroke-linecap="round"/><path d="M203.1 101.8 Q201 98.7 199.9 96.7" fill="none" stroke="#d3cc9f" stroke-width="1.4" stroke-linecap="round"/><path d="M204.5 101.8 Q205.3 98 206.1 95.4" fill="none" stroke="#d3cc9f" stroke-width="1.4" stroke-linecap="round"/><path d="M215.9 178.8 Q213.6 174.7 214.2 171.9" fill="none" stroke="#746f3c" stroke-width="2" stroke-linecap="round"/><path d="M217.4 178.8 Q218.2 174.2 221 171.1" fill="none" stroke="#746f3c" stroke-width="2" stroke-linecap="round"/><path d="M218.4 178.8 Q221.5 174.8 225.8 172.1" fill="none" stroke="#746f3c" stroke-width="2" stroke-linecap="round"/><path d="M219.2 178.8 Q217.7 175.8 215.9 173.8" fill="none" stroke="#d3cc9f" stroke-width="1.4" stroke-linecap="round"/><path d="M220.2 178.8 Q220.2 175.6 218.1 173.4" fill="none" stroke="#d3cc9f" stroke-width="1.4" stroke-linecap="round"/><path d="M102 149.3 Q98.9 145 98 142.2" fill="none" stroke="#746f3c" stroke-width="2" stroke-linecap="round"/><path d="M103.9 149.3 Q103 145.4 100.8 142.8" fill="none" stroke="#746f3c" stroke-width="2" stroke-linecap="round"/><path d="M105 149.3 Q106.4 144.5 105.8 141.4" fill="none" stroke="#746f3c" stroke-width="2" stroke-linecap="round"/><path d="M105 149.3 Q102.1 146.1 98.7 144" fill="none" stroke="#d3cc9f" stroke-width="1.4" stroke-linecap="round"/><path d="M106.9 149.3 Q110.1 146.2 114.1 144.1" fill="none" stroke="#d3cc9f" stroke-width="1.4" stroke-linecap="round"/><path d="M132.9 71.9 Q129.6 68.1 128.5 65.5" fill="none" stroke="#746f3c" stroke-width="2" stroke-linecap="round"/><path d="M134.4 71.9 Q132.6 68.1 129.6 65.5" fill="none" stroke="#746f3c" stroke-width="2" stroke-linecap="round"/><path d="M135.8 71.9 Q137.6 67.6 137.8 64.8" fill="none" stroke="#746f3c" stroke-width="2" stroke-linecap="round"/><path d="M135.8 71.9 Q132.9 68 129.3 65.4" fill="none" stroke="#d3cc9f" stroke-width="1.4" stroke-linecap="round"/><path d="M137.2 71.9 Q138.7 68.3 140.2 65.9" fill="none" stroke="#d3cc9f" stroke-width="1.4" stroke-linecap="round"/><path d="M123 125.8 Q119.3 122.6 114.8 120.4" fill="none" stroke="#746f3c" stroke-width="2" stroke-linecap="round"/><path d="M123.8 125.8 Q123.8 121.4 125.1 118.5" fill="none" stroke="#746f3c" stroke-width="2" stroke-linecap="round"/><path d="M125.8 125.8 Q130.7 122.1 135.9 119.6" fill="none" stroke="#746f3c" stroke-width="2" stroke-linecap="round"/><path d="M125.3 125.8 Q123 122.9 120.3 120.9" fill="none" stroke="#d3cc9f" stroke-width="1.4" stroke-linecap="round"/><path d="M126.6 125.8 Q127.1 122.5 126.5 120.3" fill="none" stroke="#d3cc9f" stroke-width="1.4" stroke-linecap="round"/><path d="M185.9 69.3 Q183.5 63.6 184.1 59.7" fill="none" stroke="#746f3c" stroke-width="2" stroke-linecap="round"/><path d="M187.5 69.3 Q187.5 64.5 187.7 61.3" fill="none" stroke="#746f3c" stroke-width="2" stroke-linecap="round"/><path d="M189 69.3 Q193 65.2 197.9 62.4" fill="none" stroke="#746f3c" stroke-width="2" stroke-linecap="round"/><path d="M188.8 69.3 Q188.6 65.9 191.1 63.6" fill="none" stroke="#d3cc9f" stroke-width="1.4" stroke-linecap="round"/><path d="M189.7 69.3 Q188.7 66.3 186.2 64.2" fill="none" stroke="#d3cc9f" stroke-width="1.4" stroke-linecap="round"/><path d="M207.9 137.5 Q207 131.7 208.3 127.9" fill="none" stroke="#746f3c" stroke-width="2" stroke-linecap="round"/><path d="M208.4 137.5 Q207.7 130.6 208.1 126" fill="none" stroke="#746f3c" stroke-width="2" stroke-linecap="round"/><path d="M210.9 137.5 Q215.5 131.4 219.5 127.4" fill="none" stroke="#746f3c" stroke-width="2" stroke-linecap="round"/><path d="M209.8 137.5 Q208 134.2 207.7 132" fill="none" stroke="#d3cc9f" stroke-width="1.4" stroke-linecap="round"/><path d="M211.4 137.5 Q212.7 134.7 214.2 132.9" fill="none" stroke="#d3cc9f" stroke-width="1.4" stroke-linecap="round"/><path d="M259.3 134.1 Q257.5 128.6 259.1 124.9" fill="none" stroke="#746f3c" stroke-width="2" stroke-linecap="round"/><path d="M260.8 134.1 Q260.2 129.3 259 126.1" fill="none" stroke="#746f3c" stroke-width="2" stroke-linecap="round"/><path d="M262.2 134.1 Q264 127.2 264 122.7" fill="none" stroke="#746f3c" stroke-width="2" stroke-linecap="round"/><path d="M262.6 134.1 Q262.1 130.1 261.9 127.5" fill="none" stroke="#d3cc9f" stroke-width="1.4" stroke-linecap="round"/><path d="M263.5 134.1 Q263.1 130.7 260.4 128.4" fill="none" stroke="#d3cc9f" stroke-width="1.4" stroke-linecap="round"/><path d="M325 128 Q321.7 122.7 317.2 119.2" fill="none" stroke="#746f3c" stroke-width="2" stroke-linecap="round"/><path d="M325.6 128 Q325.8 122.2 327.2 118.4" fill="none" stroke="#746f3c" stroke-width="2" stroke-linecap="round"/><path d="M327.4 128 Q331.6 121.5 336 117.1" fill="none" stroke="#746f3c" stroke-width="2" stroke-linecap="round"/><path d="M327.5 128 Q326.4 124.5 325.2 122.1" fill="none" stroke="#d3cc9f" stroke-width="1.4" stroke-linecap="round"/><path d="M328.6 128 Q328.5 125.3 325.9 123.4" fill="none" stroke="#d3cc9f" stroke-width="1.4" stroke-linecap="round"/><path d="M335.1 72.2 Q332.1 66.7 328.1 63.1" fill="none" stroke="#746f3c" stroke-width="2" stroke-linecap="round"/><path d="M335.5 72.2 Q336.1 68 338.7 65.1" fill="none" stroke="#746f3c" stroke-width="2" stroke-linecap="round"/><path d="M337.7 72.2 Q341.3 66.9 343.4 63.4" fill="none" stroke="#746f3c" stroke-width="2" stroke-linecap="round"/><path d="M337.3 72.2 Q336.4 68.9 336.5 66.7" fill="none" stroke="#d3cc9f" stroke-width="1.4" stroke-linecap="round"/><path d="M338.6 72.2 Q338.9 68.9 337.4 66.8" fill="none" stroke="#d3cc9f" stroke-width="1.4" stroke-linecap="round"/><path d="M110.4 118.5 Q108.3 114.7 109.4 112.2" fill="none" stroke="#746f3c" stroke-width="2" stroke-linecap="round"/><path d="M112.5 118.5 Q113.6 113.7 115 110.4" fill="none" stroke="#746f3c" stroke-width="2" stroke-linecap="round"/><path d="M113.9 118.5 Q116.6 114.3 116.4 111.5" fill="none" stroke="#746f3c" stroke-width="2" stroke-linecap="round"/><path d="M113.9 118.5 Q112.5 114.4 110.2 111.7" fill="none" stroke="#d3cc9f" stroke-width="1.4" stroke-linecap="round"/><path d="M115 118.5 Q116.9 114.6 118.5 112" fill="none" stroke="#d3cc9f" stroke-width="1.4" stroke-linecap="round"/><path d="M210.9 157.1 Q208.5 150.1 208 145.5" fill="none" stroke="#746f3c" stroke-width="2" stroke-linecap="round"/><path d="M212.8 157.1 Q215.1 150.7 218.5 146.5" fill="none" stroke="#746f3c" stroke-width="2" stroke-linecap="round"/><path d="M213.8 157.1 Q218 151.5 222.2 147.8" fill="none" stroke="#746f3c" stroke-width="2" stroke-linecap="round"/><path d="M213.4 157.1 Q211.9 153.9 211.4 151.8" fill="none" stroke="#d3cc9f" stroke-width="1.4" stroke-linecap="round"/><path d="M214.5 157.1 Q214.7 153.4 214.2 150.9" fill="none" stroke="#d3cc9f" stroke-width="1.4" stroke-linecap="round"/><path d="M131.9 72.8 Q130.2 66.9 130.6 63" fill="none" stroke="#746f3c" stroke-width="2" stroke-linecap="round"/><path d="M133.5 72.8 Q134.2 65.9 134.5 61.4" fill="none" stroke="#746f3c" stroke-width="2" stroke-linecap="round"/><path d="M134.8 72.8 Q136.8 65.7 135.6 61.1" fill="none" stroke="#746f3c" stroke-width="2" stroke-linecap="round"/><path d="M134.6 72.8 Q134.9 69.2 137.1 66.8" fill="none" stroke="#d3cc9f" stroke-width="1.4" stroke-linecap="round"/><path d="M136.1 72.8 Q138.8 68.9 141.5 66.4" fill="none" stroke="#d3cc9f" stroke-width="1.4" stroke-linecap="round"/><path d="M323.1 116.1 Q320.5 112.4 320.9 109.9" fill="none" stroke="#746f3c" stroke-width="2" stroke-linecap="round"/><path d="M324.8 116.1 Q324.8 112 325.3 109.3" fill="none" stroke="#746f3c" stroke-width="2" stroke-linecap="round"/><path d="M326.5 116.1 Q328.9 111.5 328.7 108.4" fill="none" stroke="#746f3c" stroke-width="2" stroke-linecap="round"/><path d="M326 116.1 Q323.7 111.2 322 107.9" fill="none" stroke="#d3cc9f" stroke-width="1.4" stroke-linecap="round"/><path d="M327.4 116.1 Q328 112.8 328.2 110.5" fill="none" stroke="#d3cc9f" stroke-width="1.4" stroke-linecap="round"/><path d="M355.8 149.4 Q353.6 144.2 352.2 140.8" fill="none" stroke="#746f3c" stroke-width="2" stroke-linecap="round"/><path d="M356.3 149.4 Q354.8 145.5 353 142.9" fill="none" stroke="#746f3c" stroke-width="2" stroke-linecap="round"/><path d="M358.6 149.4 Q361.7 144.2 362.6 140.8" fill="none" stroke="#746f3c" stroke-width="2" stroke-linecap="round"/><path d="M358.5 149.4 Q357.4 146.5 356.1 144.6" fill="none" stroke="#d3cc9f" stroke-width="1.4" stroke-linecap="round"/><path d="M359.8 149.4 Q361.2 146.1 360.8 143.9" fill="none" stroke="#d3cc9f" stroke-width="1.4" stroke-linecap="round"/><path d="M268.6 113.7 Q266.8 107.1 268.2 102.8" fill="none" stroke="#746f3c" stroke-width="2" stroke-linecap="round"/><path d="M270 113.7 Q271 107.8 274 103.8" fill="none" stroke="#746f3c" stroke-width="2" stroke-linecap="round"/><path d="M271.5 113.7 Q274.8 107.4 277.5 103.2" fill="none" stroke="#746f3c" stroke-width="2" stroke-linecap="round"/><path d="M271.9 113.7 Q273 111 276.2 109.2" fill="none" stroke="#d3cc9f" stroke-width="1.4" stroke-linecap="round"/><path d="M272.9 113.7 Q273.3 110.2 271.7 107.9" fill="none" stroke="#d3cc9f" stroke-width="1.4" stroke-linecap="round"/><path d="M216.2 133.4 Q214.8 128.9 215.6 125.8" fill="none" stroke="#746f3c" stroke-width="2" stroke-linecap="round"/><path d="M217.8 133.4 Q217.3 128.8 215.2 125.6" fill="none" stroke="#746f3c" stroke-width="2" stroke-linecap="round"/><path d="M218.9 133.4 Q222.7 129.2 226.4 126.4" fill="none" stroke="#746f3c" stroke-width="2" stroke-linecap="round"/><path d="M218.6 133.4 Q217.4 129.7 217.5 127.2" fill="none" stroke="#d3cc9f" stroke-width="1.4" stroke-linecap="round"/><path d="M219.9 133.4 Q220.3 129.8 219.8 127.3" fill="none" stroke="#d3cc9f" stroke-width="1.4" stroke-linecap="round"/><path d="M109.4 89.8 Q107.4 85.5 108.4 82.6" fill="none" stroke="#746f3c" stroke-width="2" stroke-linecap="round"/><path d="M111.5 89.8 Q111.4 86.1 109.4 83.6" fill="none" stroke="#746f3c" stroke-width="2" stroke-linecap="round"/><path d="M112.2 89.8 Q113.6 85.1 112.5 82" fill="none" stroke="#746f3c" stroke-width="2" stroke-linecap="round"/><path d="M112.6 89.8 Q113 86.7 115.3 84.6" fill="none" stroke="#d3cc9f" stroke-width="1.4" stroke-linecap="round"/><path d="M113 89.8 Q112.3 85.4 110 82.5" fill="none" stroke="#d3cc9f" stroke-width="1.4" stroke-linecap="round"/><path d="M154.6 72.1 Q151.6 67 148.1 63.5" fill="none" stroke="#746f3c" stroke-width="2" stroke-linecap="round"/><path d="M156 72.1 Q157.1 68.1 158.7 65.4" fill="none" stroke="#746f3c" stroke-width="2" stroke-linecap="round"/><path d="M157.6 72.1 Q161.9 68.5 165.3 66.1" fill="none" stroke="#746f3c" stroke-width="2" stroke-linecap="round"/><path d="M156.8 72.1 Q155.5 68.9 155.4 66.8" fill="none" stroke="#d3cc9f" stroke-width="1.4" stroke-linecap="round"/><path d="M158.4 72.1 Q160.8 69.6 163.9 67.9" fill="none" stroke="#d3cc9f" stroke-width="1.4" stroke-linecap="round"/><path d="M254.6 121.1 Q252.8 115.4 252.6 111.5" fill="none" stroke="#746f3c" stroke-width="2" stroke-linecap="round"/><path d="M255.9 121.1 Q256.7 116 258.7 112.6" fill="none" stroke="#746f3c" stroke-width="2" stroke-linecap="round"/><path d="M256.8 121.1 Q257.2 114.9 255 110.8" fill="none" stroke="#746f3c" stroke-width="2" stroke-linecap="round"/><path d="M256.7 121.1 Q253.8 117.8 251 115.6" fill="none" stroke="#d3cc9f" stroke-width="1.4" stroke-linecap="round"/><path d="M258.4 121.1 Q260.5 118.7 263.7 117" fill="none" stroke="#d3cc9f" stroke-width="1.4" stroke-linecap="round"/><path d="M195.2 114.7 Q194.2 109 195.5 105.2" fill="none" stroke="#746f3c" stroke-width="2" stroke-linecap="round"/><path d="M195.7 114.7 Q195.5 108.6 196.8 104.6" fill="none" stroke="#746f3c" stroke-width="2" stroke-linecap="round"/><path d="M197.2 114.7 Q198.3 108.4 197.5 104.3" fill="none" stroke="#746f3c" stroke-width="2" stroke-linecap="round"/><path d="M197.7 114.7 Q197.7 111.7 199.4 109.8" fill="none" stroke="#d3cc9f" stroke-width="1.4" stroke-linecap="round"/><path d="M198.2 114.7 Q198.7 112.1 199.4 110.3" fill="none" stroke="#d3cc9f" stroke-width="1.4" stroke-linecap="round"/><path d="M216.3 119.9 Q215.3 116.7 216.8 114.5" fill="none" stroke="#746f3c" stroke-width="2" stroke-linecap="round"/><path d="M217.6 119.9 Q217.8 116.1 217.2 113.6" fill="none" stroke="#746f3c" stroke-width="2" stroke-linecap="round"/><path d="M219.2 119.9 Q223.7 115.8 227.4 113.1" fill="none" stroke="#746f3c" stroke-width="2" stroke-linecap="round"/><path d="M218.7 119.9 Q216.3 115.7 213.1 112.9" fill="none" stroke="#d3cc9f" stroke-width="1.4" stroke-linecap="round"/><path d="M219.4 119.9 Q218.5 116.2 215.8 113.7" fill="none" stroke="#d3cc9f" stroke-width="1.4" stroke-linecap="round"/><path d="M202.8 174.8 Q202 170.1 203 167" fill="none" stroke="#746f3c" stroke-width="2" stroke-linecap="round"/><path d="M203.1 174.8 Q201.2 168.3 198.5 164.1" fill="none" stroke="#746f3c" stroke-width="2" stroke-linecap="round"/><path d="M204.8 174.8 Q208.3 169.1 212.1 165.3" fill="none" stroke="#746f3c" stroke-width="2" stroke-linecap="round"/><path d="M204.7 174.8 Q202 171.1 199 168.6" fill="none" stroke="#d3cc9f" stroke-width="1.4" stroke-linecap="round"/><path d="M205.7 174.8 Q204.6 172.3 201.9 170.6" fill="none" stroke="#d3cc9f" stroke-width="1.4" stroke-linecap="round"/><path d="M371.5 115.3 Q367.6 109.6 364.9 105.8" fill="none" stroke="#746f3c" stroke-width="2" stroke-linecap="round"/><path d="M373 115.3 Q371.6 110.3 369.5 107" fill="none" stroke="#746f3c" stroke-width="2" stroke-linecap="round"/><path d="M374.9 115.3 Q378.3 109.8 381.2 106.2" fill="none" stroke="#746f3c" stroke-width="2" stroke-linecap="round"/><path d="M374.7 115.3 Q373.3 111.5 372.1 108.9" fill="none" stroke="#d3cc9f" stroke-width="1.4" stroke-linecap="round"/><path d="M375.8 115.3 Q376.4 111.8 376.2 109.5" fill="none" stroke="#d3cc9f" stroke-width="1.4" stroke-linecap="round"/><path d="M347.8 78.4 Q346.7 73.8 348.7 70.8" fill="none" stroke="#746f3c" stroke-width="2" stroke-linecap="round"/><path d="M348.9 78.4 Q349.9 72.1 352.8 67.9" fill="none" stroke="#746f3c" stroke-width="2" stroke-linecap="round"/><path d="M350.9 78.4 Q353.6 72.6 353.5 68.7" fill="none" stroke="#746f3c" stroke-width="2" stroke-linecap="round"/><path d="M350.4 78.4 Q349.4 74.6 349.8 72" fill="none" stroke="#d3cc9f" stroke-width="1.4" stroke-linecap="round"/><path d="M351.2 78.4 Q352 75.6 353.9 73.7" fill="none" stroke="#d3cc9f" stroke-width="1.4" stroke-linecap="round"/><path d="M220.7 122 Q218.7 115.8 219 111.6" fill="none" stroke="#746f3c" stroke-width="2" stroke-linecap="round"/><path d="M221.7 122 Q219.8 115.3 216.4 110.8" fill="none" stroke="#746f3c" stroke-width="2" stroke-linecap="round"/><path d="M223.2 122 Q226.9 114.3 231.3 109.3" fill="none" stroke="#746f3c" stroke-width="2" stroke-linecap="round"/><path d="M223.4 122 Q221.1 118.4 217.7 116.1" fill="none" stroke="#d3cc9f" stroke-width="1.4" stroke-linecap="round"/><path d="M225 122 Q227.5 118.8 230 116.8" fill="none" stroke="#d3cc9f" stroke-width="1.4" stroke-linecap="round"/><path d="M198 113.3 Q196.1 107 197.4 102.8" fill="none" stroke="#746f3c" stroke-width="2" stroke-linecap="round"/><path d="M200.2 113.3 Q202.4 108.2 205.7 104.9" fill="none" stroke="#746f3c" stroke-width="2" stroke-linecap="round"/><path d="M201.1 113.3 Q203.3 107.7 203.6 104" fill="none" stroke="#746f3c" stroke-width="2" stroke-linecap="round"/><path d="M201.2 113.3 Q200 110.7 198.6 109" fill="none" stroke="#d3cc9f" stroke-width="1.4" stroke-linecap="round"/><path d="M202.8 113.3 Q204.1 110.1 203.6 107.9" fill="none" stroke="#d3cc9f" stroke-width="1.4" stroke-linecap="round"/><path d="M123.3 143.7 Q121.3 140 121.4 137.6" fill="none" stroke="#746f3c" stroke-width="2" stroke-linecap="round"/><path d="M124.8 143.7 Q126.1 140.2 128.9 137.9" fill="none" stroke="#746f3c" stroke-width="2" stroke-linecap="round"/><path d="M126.2 143.7 Q127.8 139.8 126.2 137.3" fill="none" stroke="#746f3c" stroke-width="2" stroke-linecap="round"/><path d="M125.6 143.7 Q124.3 139.9 125.2 137.4" fill="none" stroke="#d3cc9f" stroke-width="1.4" stroke-linecap="round"/><path d="M127.5 143.7 Q129 140.3 129.9 138.1" fill="none" stroke="#d3cc9f" stroke-width="1.4" stroke-linecap="round"/><path d="M332.9 167.9 Q328.5 161.7 324.5 157.5" fill="none" stroke="#746f3c" stroke-width="2" stroke-linecap="round"/><path d="M335.2 167.9 Q335 162.3 332.6 158.6" fill="none" stroke="#746f3c" stroke-width="2" stroke-linecap="round"/><path d="M336.5 167.9 Q339.8 162.2 341 158.4" fill="none" stroke="#746f3c" stroke-width="2" stroke-linecap="round"/><path d="M336 167.9 Q335.6 164.9 336.8 162.9" fill="none" stroke="#d3cc9f" stroke-width="1.4" stroke-linecap="round"/><path d="M337.1 167.9 Q338.8 164.5 341.4 162.2" fill="none" stroke="#d3cc9f" stroke-width="1.4" stroke-linecap="round"/><path d="M277 131.1 Q273.7 126.1 272.7 122.8" fill="none" stroke="#746f3c" stroke-width="2" stroke-linecap="round"/><path d="M279.1 131.1 Q279.2 126.8 278.8 123.9" fill="none" stroke="#746f3c" stroke-width="2" stroke-linecap="round"/><path d="M280.8 131.1 Q284.5 126.5 286.9 123.4" fill="none" stroke="#746f3c" stroke-width="2" stroke-linecap="round"/><path d="M280.4 131.1 Q280.7 128.5 283.1 126.7" fill="none" stroke="#d3cc9f" stroke-width="1.4" stroke-linecap="round"/><path d="M281.3 131.1 Q281.4 128.3 280.6 126.4" fill="none" stroke="#d3cc9f" stroke-width="1.4" stroke-linecap="round"/><path d="M307.1 59.4 Q303 54.1 300.4 50.6" fill="none" stroke="#746f3c" stroke-width="2" stroke-linecap="round"/><path d="M309.6 59.4 Q309.9 55.7 309 53.3" fill="none" stroke="#746f3c" stroke-width="2" stroke-linecap="round"/><path d="M310.8 59.4 Q314.3 53.8 316.5 50.1" fill="none" stroke="#746f3c" stroke-width="2" stroke-linecap="round"/><path d="M310.1 59.4 Q309.1 56.6 310.4 54.7" fill="none" stroke="#d3cc9f" stroke-width="1.4" stroke-linecap="round"/><path d="M311.4 59.4 Q310.6 55.9 307.7 53.6" fill="none" stroke="#d3cc9f" stroke-width="1.4" stroke-linecap="round"/><path d="M276.8 133.1 Q273.5 127.9 270.8 124.3" fill="none" stroke="#746f3c" stroke-width="2" stroke-linecap="round"/><path d="M278.8 133.1 Q281.2 129.2 285.2 126.6" fill="none" stroke="#746f3c" stroke-width="2" stroke-linecap="round"/><path d="M280.3 133.1 Q283.5 128.4 284.1 125.3" fill="none" stroke="#746f3c" stroke-width="2" stroke-linecap="round"/><path d="M279.5 133.1 Q277 130.8 274.2 129.3" fill="none" stroke="#d3cc9f" stroke-width="1.4" stroke-linecap="round"/><path d="M281.1 133.1 Q284 130.5 287.7 128.8" fill="none" stroke="#d3cc9f" stroke-width="1.4" stroke-linecap="round"/><path d="M70.9 124.1 Q67.1 119.6 64 116.6" fill="none" stroke="#746f3c" stroke-width="2" stroke-linecap="round"/><path d="M73.1 124.1 Q75.3 120 78.9 117.2" fill="none" stroke="#746f3c" stroke-width="2" stroke-linecap="round"/><path d="M74.6 124.1 Q79.2 119.6 83 116.6" fill="none" stroke="#746f3c" stroke-width="2" stroke-linecap="round"/><path d="M74.4 124.1 Q73.5 120.8 72.3 118.7" fill="none" stroke="#d3cc9f" stroke-width="1.4" stroke-linecap="round"/><path d="M75.1 124.1 Q74.5 120.6 71.7 118.3" fill="none" stroke="#d3cc9f" stroke-width="1.4" stroke-linecap="round"/><path d="M251.6 110.1 Q248.3 106.8 246.3 104.6" fill="none" stroke="#746f3c" stroke-width="2" stroke-linecap="round"/><path d="M252.8 110.1 Q252.1 106.7 251.5 104.4" fill="none" stroke="#746f3c" stroke-width="2" stroke-linecap="round"/><path d="M255 110.1 Q258.8 106.1 261.1 103.4" fill="none" stroke="#746f3c" stroke-width="2" stroke-linecap="round"/><path d="M254.9 110.1 Q255.5 107.2 257.8 105.3" fill="none" stroke="#d3cc9f" stroke-width="1.4" stroke-linecap="round"/><path d="M255.9 110.1 Q256.9 106.5 256.3 104.1" fill="none" stroke="#d3cc9f" stroke-width="1.4" stroke-linecap="round"/><path d="M367.2 117.5 Q364.9 113.4 365.7 110.7" fill="none" stroke="#746f3c" stroke-width="2" stroke-linecap="round"/><path d="M369.3 117.5 Q371 113.1 374.1 110.2" fill="none" stroke="#746f3c" stroke-width="2" stroke-linecap="round"/><path d="M370.5 117.5 Q372.4 112 371.8 108.3" fill="none" stroke="#746f3c" stroke-width="2" stroke-linecap="round"/><path d="M370.7 117.5 Q371.3 112.8 374.1 109.6" fill="none" stroke="#d3cc9f" stroke-width="1.4" stroke-linecap="round"/><path d="M371.5 117.5 Q371.9 114.3 371.1 112.1" fill="none" stroke="#d3cc9f" stroke-width="1.4" stroke-linecap="round"/><path d="M139.8 98.3 Q136.4 94 132.5 91.2" fill="none" stroke="#746f3c" stroke-width="2" stroke-linecap="round"/><path d="M140.8 98.3 Q140 93.7 138.8 90.7" fill="none" stroke="#746f3c" stroke-width="2" stroke-linecap="round"/><path d="M142.9 98.3 Q146.4 92.2 147.8 88.2" fill="none" stroke="#746f3c" stroke-width="2" stroke-linecap="round"/><path d="M142.1 98.3 Q140.4 93.9 139.1 91" fill="none" stroke="#d3cc9f" stroke-width="1.4" stroke-linecap="round"/><path d="M144.1 98.3 Q146.2 94 147.2 91.2" fill="none" stroke="#d3cc9f" stroke-width="1.4" stroke-linecap="round"/><path d="M206.9 91.9 Q202.2 86 197.4 82.1" fill="none" stroke="#746f3c" stroke-width="2" stroke-linecap="round"/><path d="M208.3 91.9 Q206.4 87.5 203.4 84.6" fill="none" stroke="#746f3c" stroke-width="2" stroke-linecap="round"/><path d="M210.1 91.9 Q214.1 86.6 218.6 83" fill="none" stroke="#746f3c" stroke-width="2" stroke-linecap="round"/><path d="M209.8 91.9 Q208.9 88.2 210.3 85.8" fill="none" stroke="#d3cc9f" stroke-width="1.4" stroke-linecap="round"/><path d="M210.9 91.9 Q210.2 88.9 207.7 86.9" fill="none" stroke="#d3cc9f" stroke-width="1.4" stroke-linecap="round"/><path d="M226.2 86.9 Q221.6 82.2 217.5 79" fill="none" stroke="#746f3c" stroke-width="2" stroke-linecap="round"/><path d="M228 86.9 Q226.9 82.2 224.6 79.1" fill="none" stroke="#746f3c" stroke-width="2" stroke-linecap="round"/><path d="M229.1 86.9 Q230.2 82.3 229.6 79.2" fill="none" stroke="#746f3c" stroke-width="2" stroke-linecap="round"/><path d="M229.3 86.9 Q227.5 83.3 226.2 81" fill="none" stroke="#d3cc9f" stroke-width="1.4" stroke-linecap="round"/><path d="M230.7 86.9 Q230.5 83.1 227.9 80.6" fill="none" stroke="#d3cc9f" stroke-width="1.4" stroke-linecap="round"/><path d="M371.6 140 Q368.3 134.1 366.4 130.1" fill="none" stroke="#746f3c" stroke-width="2" stroke-linecap="round"/><path d="M373.4 140 Q375 133.9 378.3 129.9" fill="none" stroke="#746f3c" stroke-width="2" stroke-linecap="round"/><path d="M374.8 140 Q379 133.3 383.6 128.9" fill="none" stroke="#746f3c" stroke-width="2" stroke-linecap="round"/><path d="M374.2 140 Q373.1 136.8 374.3 134.7" fill="none" stroke="#d3cc9f" stroke-width="1.4" stroke-linecap="round"/><path d="M376.1 140 Q378.7 136.5 381.8 134.2" fill="none" stroke="#d3cc9f" stroke-width="1.4" stroke-linecap="round"/><path d="M204.8 67.9 Q203.4 62.9 205.2 59.6" fill="none" stroke="#746f3c" stroke-width="2" stroke-linecap="round"/><path d="M206.5 67.9 Q206.6 62.4 205.8 58.8" fill="none" stroke="#746f3c" stroke-width="2" stroke-linecap="round"/><path d="M207.8 67.9 Q211.4 62.2 214.8 58.3" fill="none" stroke="#746f3c" stroke-width="2" stroke-linecap="round"/><path d="M208.1 67.9 Q207.5 64.2 206.4 61.7" fill="none" stroke="#d3cc9f" stroke-width="1.4" stroke-linecap="round"/><path d="M208.7 67.9 Q209 64.9 208.3 62.9" fill="none" stroke="#d3cc9f" stroke-width="1.4" stroke-linecap="round"/><path d="M373.5 126.5 Q368.9 123 364.4 120.6" fill="none" stroke="#746f3c" stroke-width="2" stroke-linecap="round"/><path d="M375.5 126.5 Q376.8 122.9 378.8 120.6" fill="none" stroke="#746f3c" stroke-width="2" stroke-linecap="round"/><path d="M376.1 126.5 Q378.2 121.6 380.2 118.3" fill="none" stroke="#746f3c" stroke-width="2" stroke-linecap="round"/><path d="M376.8 126.5 Q375.1 123.1 372.6 120.9" fill="none" stroke="#d3cc9f" stroke-width="1.4" stroke-linecap="round"/><path d="M378.3 126.5 Q381.6 122.2 385.5 119.4" fill="none" stroke="#d3cc9f" stroke-width="1.4" stroke-linecap="round"/><path d="M279.7 144.9 Q276.1 139.4 272.2 135.7" fill="none" stroke="#746f3c" stroke-width="2" stroke-linecap="round"/><path d="M280.7 144.9 Q279.9 140.3 278.5 137.2" fill="none" stroke="#746f3c" stroke-width="2" stroke-linecap="round"/><path d="M282.6 144.9 Q286.9 139.6 291.1 136.1" fill="none" stroke="#746f3c" stroke-width="2" stroke-linecap="round"/><path d="M282.6 144.9 Q280.6 141.4 277.3 139.1" fill="none" stroke="#d3cc9f" stroke-width="1.4" stroke-linecap="round"/><path d="M283.9 144.9 Q286 142.1 287.7 140.3" fill="none" stroke="#d3cc9f" stroke-width="1.4" stroke-linecap="round"/><path d="M88.6 128.1 Q85.4 124.2 82 121.5" fill="none" stroke="#746f3c" stroke-width="2" stroke-linecap="round"/><path d="M90 128.1 Q91.4 124.3 93.8 121.8" fill="none" stroke="#746f3c" stroke-width="2" stroke-linecap="round"/><path d="M91.1 128.1 Q94.9 123.4 99.2 120.2" fill="none" stroke="#746f3c" stroke-width="2" stroke-linecap="round"/><path d="M91.7 128.1 Q92.1 125.6 93.6 123.9" fill="none" stroke="#d3cc9f" stroke-width="1.4" stroke-linecap="round"/><path d="M92.2 128.1 Q91.9 124.4 89.9 122" fill="none" stroke="#d3cc9f" stroke-width="1.4" stroke-linecap="round"/><path d="M168.8 55 Q165.4 48.8 162.5 44.7" fill="none" stroke="#746f3c" stroke-width="2" stroke-linecap="round"/><path d="M170 55 Q168.6 49.6 166 46" fill="none" stroke="#746f3c" stroke-width="2" stroke-linecap="round"/><path d="M171.7 55 Q174.1 48.8 174.1 44.7" fill="none" stroke="#746f3c" stroke-width="2" stroke-linecap="round"/><path d="M171.6 55 Q172 51.4 174.8 49.1" fill="none" stroke="#d3cc9f" stroke-width="1.4" stroke-linecap="round"/><path d="M172.5 55 Q172.4 51.8 171.3 49.7" fill="none" stroke="#d3cc9f" stroke-width="1.4" stroke-linecap="round"/><path d="M135.7 77.2 Q134.1 72.9 133.6 70" fill="none" stroke="#746f3c" stroke-width="2" stroke-linecap="round"/><path d="M136.9 77.2 Q137.2 72.1 137.6 68.7" fill="none" stroke="#746f3c" stroke-width="2" stroke-linecap="round"/><path d="M138.4 77.2 Q142 72.2 144.5 68.9" fill="none" stroke="#746f3c" stroke-width="2" stroke-linecap="round"/><path d="M138.6 77.2 Q138 73.9 137.4 71.7" fill="none" stroke="#d3cc9f" stroke-width="1.4" stroke-linecap="round"/><path d="M139.6 77.2 Q139.9 73.7 137.8 71.3" fill="none" stroke="#d3cc9f" stroke-width="1.4" stroke-linecap="round"/><path d="M109.9 123.8 Q108.1 119.1 109.5 115.9" fill="none" stroke="#746f3c" stroke-width="2" stroke-linecap="round"/><path d="M111.1 123.8 Q111.5 117.8 114 113.7" fill="none" stroke="#746f3c" stroke-width="2" stroke-linecap="round"/><path d="M112.3 123.8 Q114.3 118.8 116 115.5" fill="none" stroke="#746f3c" stroke-width="2" stroke-linecap="round"/><path d="M113.4 123.8 Q113 121 112.1 119.1" fill="none" stroke="#d3cc9f" stroke-width="1.4" stroke-linecap="round"/><path d="M114.6 123.8 Q115.3 121.4 113 119.9" fill="none" stroke="#d3cc9f" stroke-width="1.4" stroke-linecap="round"/><path d="M278.9 184.6 Q276.6 179.1 275.9 175.5" fill="none" stroke="#746f3c" stroke-width="2" stroke-linecap="round"/><path d="M280.4 184.6 Q281.1 180.8 281.9 178.2" fill="none" stroke="#746f3c" stroke-width="2" stroke-linecap="round"/><path d="M282 184.6 Q285.9 179.8 288.6 176.5" fill="none" stroke="#746f3c" stroke-width="2" stroke-linecap="round"/><path d="M281.9 184.6 Q281.4 181.8 281.7 179.9" fill="none" stroke="#d3cc9f" stroke-width="1.4" stroke-linecap="round"/><path d="M282.6 184.6 Q283.8 182.2 285.4 180.6" fill="none" stroke="#d3cc9f" stroke-width="1.4" stroke-linecap="round"/><path d="M220.2 125.3 Q217.4 119 214.5 114.7" fill="none" stroke="#746f3c" stroke-width="2" stroke-linecap="round"/><path d="M221 125.3 Q220.7 119.7 221.1 115.9" fill="none" stroke="#746f3c" stroke-width="2" stroke-linecap="round"/><path d="M222.2 125.3 Q222.6 119.2 220.5 115.1" fill="none" stroke="#746f3c" stroke-width="2" stroke-linecap="round"/><path d="M222.9 125.3 Q222.7 121.6 223.8 119.2" fill="none" stroke="#d3cc9f" stroke-width="1.4" stroke-linecap="round"/><path d="M223.8 125.3 Q224.8 122 225.3 119.7" fill="none" stroke="#d3cc9f" stroke-width="1.4" stroke-linecap="round"/><path d="M228.7 95.4 Q225 88.6 222.6 84.1" fill="none" stroke="#746f3c" stroke-width="2" stroke-linecap="round"/><path d="M230.1 95.4 Q230.3 89.1 232.3 84.8" fill="none" stroke="#746f3c" stroke-width="2" stroke-linecap="round"/><path d="M231.7 95.4 Q235.2 89.9 239.5 86.2" fill="none" stroke="#746f3c" stroke-width="2" stroke-linecap="round"/><path d="M232.5 95.4 Q233.4 93 235.3 91.4" fill="none" stroke="#d3cc9f" stroke-width="1.4" stroke-linecap="round"/><path d="M233.7 95.4 Q236.3 93 238.3 91.4" fill="none" stroke="#d3cc9f" stroke-width="1.4" stroke-linecap="round"/><path d="M67.5 109.3 Q65.1 105.1 65.5 102.2" fill="none" stroke="#746f3c" stroke-width="2" stroke-linecap="round"/><path d="M68.9 109.3 Q69.6 105.6 72.6 103.2" fill="none" stroke="#746f3c" stroke-width="2" stroke-linecap="round"/><path d="M71.2 109.3 Q73.6 105.8 72.5 103.5" fill="none" stroke="#746f3c" stroke-width="2" stroke-linecap="round"/><path d="M70.7 109.3 Q68.9 105.3 66.8 102.7" fill="none" stroke="#d3cc9f" stroke-width="1.4" stroke-linecap="round"/><path d="M71.8 109.3 Q72.7 104.6 72.6 101.5" fill="none" stroke="#d3cc9f" stroke-width="1.4" stroke-linecap="round"/><path d="M209.6 102.6 Q207.1 98 206.3 94.9" fill="none" stroke="#746f3c" stroke-width="2" stroke-linecap="round"/><path d="M211.5 102.6 Q211.3 97.7 209.3 94.3" fill="none" stroke="#746f3c" stroke-width="2" stroke-linecap="round"/><path d="M212.6 102.6 Q216.5 97.6 220.2 94.2" fill="none" stroke="#746f3c" stroke-width="2" stroke-linecap="round"/><path d="M212 102.6 Q209.3 98.4 206.6 95.5" fill="none" stroke="#d3cc9f" stroke-width="1.4" stroke-linecap="round"/><path d="M213.4 102.6 Q213.5 98.2 212.8 95.2" fill="none" stroke="#d3cc9f" stroke-width="1.4" stroke-linecap="round"/><path d="M155.8 77.4 Q152.6 72.6 150.5 69.4" fill="none" stroke="#746f3c" stroke-width="2" stroke-linecap="round"/><path d="M156.9 77.4 Q155.2 72.8 152.5 69.8" fill="none" stroke="#746f3c" stroke-width="2" stroke-linecap="round"/><path d="M158.7 77.4 Q161.6 73.2 163.4 70.4" fill="none" stroke="#746f3c" stroke-width="2" stroke-linecap="round"/><path d="M158.9 77.4 Q158.1 74.2 157.8 72" fill="none" stroke="#d3cc9f" stroke-width="1.4" stroke-linecap="round"/><path d="M160.5 77.4 Q161.9 73.1 161.2 70.3" fill="none" stroke="#d3cc9f" stroke-width="1.4" stroke-linecap="round"/><path d="M315.6 113.9 Q311.7 110.1 308.1 107.5" fill="none" stroke="#746f3c" stroke-width="2" stroke-linecap="round"/><path d="M317.7 113.9 Q319.4 110.1 321.4 107.6" fill="none" stroke="#746f3c" stroke-width="2" stroke-linecap="round"/><path d="M318.2 113.9 Q321.2 110.7 324.2 108.6" fill="none" stroke="#746f3c" stroke-width="2" stroke-linecap="round"/><path d="M318.6 113.9 Q317.7 110.7 317.3 108.6" fill="none" stroke="#d3cc9f" stroke-width="1.4" stroke-linecap="round"/><path d="M319.3 113.9 Q320.7 110.1 323.2 107.5" fill="none" stroke="#d3cc9f" stroke-width="1.4" stroke-linecap="round"/><path d="M167 132.1 Q165.2 127.5 164.1 124.5" fill="none" stroke="#746f3c" stroke-width="2" stroke-linecap="round"/><path d="M168.1 132.1 Q168.2 126.5 167.8 122.7" fill="none" stroke="#746f3c" stroke-width="2" stroke-linecap="round"/><path d="M169.1 132.1 Q170.5 127.1 169.5 123.7" fill="none" stroke="#746f3c" stroke-width="2" stroke-linecap="round"/><path d="M169.1 132.1 Q169 128.2 171.3 125.6" fill="none" stroke="#d3cc9f" stroke-width="1.4" stroke-linecap="round"/><path d="M170.6 132.1 Q171.7 128.6 171.9 126.3" fill="none" stroke="#d3cc9f" stroke-width="1.4" stroke-linecap="round"/><path d="M348.5 85.5 Q344.2 80 340.2 76.4" fill="none" stroke="#746f3c" stroke-width="2" stroke-linecap="round"/><path d="M350.7 85.5 Q350.4 80.9 348 77.8" fill="none" stroke="#746f3c" stroke-width="2" stroke-linecap="round"/><path d="M352 85.5 Q356.3 79.3 359.9 75.2" fill="none" stroke="#746f3c" stroke-width="2" stroke-linecap="round"/><path d="M351.6 85.5 Q349.3 82.2 346 80" fill="none" stroke="#d3cc9f" stroke-width="1.4" stroke-linecap="round"/><path d="M353.3 85.5 Q356.2 82.3 359.1 80.1" fill="none" stroke="#d3cc9f" stroke-width="1.4" stroke-linecap="round"/><path d="M271.5 111.9 Q270.7 104.4 271.9 99.4" fill="none" stroke="#746f3c" stroke-width="2" stroke-linecap="round"/><path d="M272 111.9 Q270.3 106.3 268.1 102.6" fill="none" stroke="#746f3c" stroke-width="2" stroke-linecap="round"/><path d="M273.7 111.9 Q277.6 106.6 282.2 103.1" fill="none" stroke="#746f3c" stroke-width="2" stroke-linecap="round"/><path d="M274 111.9 Q272.9 108.6 272.1 106.4" fill="none" stroke="#d3cc9f" stroke-width="1.4" stroke-linecap="round"/><path d="M275.3 111.9 Q276.1 109.2 274.8 107.3" fill="none" stroke="#d3cc9f" stroke-width="1.4" stroke-linecap="round"/></svg>