<svg xmlns="http://www.w3.org/2000/svg" width="200" height="138" viewBox="0 0 200 138"><defs><linearGradient id="lg1" x1="0" y1="0" x2="0" y2="1"><stop offset="0" stop-color="#725d43"/><stop offset="1" stop-color="#3f3325"/></linearGradient><linearGradient id="lg2" x1="0" y1="0" x2="0" y2="1"><stop offset="0" stop-color="#3f3325"/><stop offset="1" stop-color="#18140e"/></linearGradient><clipPath id="cp3"><path d="M-1.2 50 L100 -0.6 L201.2 50 L100 100.6 Z"/></clipPath><filter id="bl4" x="-50%" y="-50%" width="200%" height="200%"><feGaussianBlur stdDeviation="14"/></filter><filter id="nz5" x="0" y="0" width="100%" height="100%"><feTurbulence type="fractalNoise" baseFrequency="0.09" numOctaves="2" seed="39" result="t"/><feColorMatrix in="t" type="matrix" values="0 0 0 0 0.263 0 0 0 0 0.290 0 0 0 0 0.173 0 0 0 0.400 -0.160" result="n"/><feComposite in="n" in2="SourceAlpha" operator="in"/></filter><clipPath id="cp6"><path d="M-1.2 50 L100 -0.6 L201.2 50 L100 100.6 Z"/></clipPath></defs><path d="M0 50 L100 100 L100 136 L0 86 Z" fill="url(#lg1)" stroke="#2b1a10" stroke-width="2" stroke-linejoin="round" stroke-linecap="round" /><path d="M100 100 L200 50 L200 86 L100 136 Z" fill="url(#lg2)" stroke="#2b1a10" stroke-width="2" stroke-linejoin="round" stroke-linecap="round" /><path d="M2 64 Q50.0 91.59089985934476 98 112" fill="none" stroke="#1f1912" stroke-width="2" stroke-linejoin="round" stroke-linecap="round" /><path d="M102 112 Q150.0 89.29294838021067 198 64" fill="none" stroke="#000000" stroke-width="2" stroke-linejoin="round" stroke-linecap="round" /><path d="M2 75 Q50.0 102.82438430137626 98 123" fill="none" stroke="#1f1912" stroke-width="2" stroke-linejoin="round" stroke-linecap="round" /><path d="M102 123 Q150.0 97.80600277031849 198 75" fill="none" stroke="#000000" stroke-width="2" stroke-linejoin="round" stroke-linecap="round" /><ellipse cx="14" cy="74.3" rx="2.8" ry="2.8" fill="#8f7454" stroke="#000000" stroke-width="1.2" /><ellipse cx="85.2" cy="121" rx="3.3" ry="2.1" fill="#8f7454" stroke="#000000" stroke-width="1.2" /><ellipse cx="57.5" cy="93.7" rx="3.3" ry="2.1" fill="#8f7454" stroke="#000000" stroke-width="1.2" /><ellipse cx="182.9" cy="73.1" rx="3.8" ry="2.5" fill="#65523c" stroke="#000000" stroke-width="1.2" /><ellipse cx="125.8" cy="112.5" rx="2.5" ry="1.9" fill="#65523c" stroke="#000000" stroke-width="1.2" /><path d="M0 50 L100 100 L200 50 L200 50 L190 64.2 L180 65.1 L170 70.5 L160 79.3 L150 83.4 L140 86.5 L130 90.6 L120 96.6 L110 102.3 L100 105.2 L90 103.7 L80 96.8 L70 94.2 L60 85.7 L50 83.7 L40 76.5 L30 70.8 L20 67.5 L10 61.3 L0 50 Z" fill="#606a40" stroke="#2b1a10" stroke-width="2" stroke-linejoin="round" stroke-linecap="round" /><path d="M-1.2 50 L100 -0.6 L201.2 50 L100 100.6 Z" fill="#848f58" /><g clip-path="url(#cp3)"><g filter="url(#bl4)" opacity="0.25"><ellipse cx="177.7" cy="54.4" rx="39.4" ry="10.2" fill="#77834f" /><ellipse cx="77" cy="19.6" rx="25.8" ry="16.6" fill="#909b62" /><ellipse cx="69" cy="37" rx="28.1" ry="17.4" fill="#77834f" /><ellipse cx="121.9" cy="21.5" rx="34.9" ry="14.4" fill="#77834f" /></g></g><path d="M-1.2 50 L100 -0.6 L201.2 50 L100 100.6 Z" fill="#000" filter="url(#nz5)"/><g clip-path="url(#cp6)"><ellipse cx="149.3" cy="16.2" rx="3" ry="2.2" fill="#7f8856" stroke="#434a2c" stroke-width="0.8" /><ellipse cx="144.1" cy="17.4" rx="3" ry="2.2" fill="#7f8856" stroke="#434a2c" stroke-width="0.8" /><ellipse cx="146.2" cy="14" rx="3" ry="2.2" fill="#7f8856" stroke="#434a2c" stroke-width="0.8" /><path d="M160.4 37.3 Q156.5 32.4 154.1 29.2" fill="none" stroke="#4c5731" stroke-width="2" stroke-linecap="round"/><path d="M161.9 37.3 Q160.4 31.6 158.6 27.8" fill="none" stroke="#4c5731" stroke-width="2" stroke-linecap="round"/><path d="M164.2 37.3 Q166.5 33.2 165.6 30.4" fill="none" stroke="#4c5731" stroke-width="2" stroke-linecap="round"/><path d="M163.1 36.8 Q161 33.8 158.3 31.8" fill="none" stroke="#afb78d" stroke-width="1.3" stroke-linecap="round"/><path d="M163.9 36.8 Q165.1 32.7 167.4 30" fill="none" stroke="#afb78d" stroke-width="1.3" stroke-linecap="round"/></g></svg>